<svg width="43" height="43" viewBox="0 0 43 43" fill="none" xmlns="http://www.w3.org/2000/svg">
<g clip-path="url(#clip0_1025_5252)">
<path d="M30.6032 21.7204L45.0996 30.8847V12.169L30.6032 21.7204ZM2.09961 12.169V30.8847L16.596 21.7204L2.09961 12.169ZM42.4121 6.71875H4.78711C3.44605 6.71875 2.3818 7.7185 2.18023 9.00581L23.5996 23.1179L45.019 9.00581C44.8174 7.7185 43.7532 6.71875 42.4121 6.71875ZM28.1415 23.3436L24.3387 25.8484C24.1192 25.9925 23.8622 26.0692 23.5996 26.0687C23.3416 26.0687 23.0863 25.9962 22.8605 25.8484L19.0577 23.3409L2.18561 34.013C2.39255 35.2896 3.45142 36.2812 4.78711 36.2812H42.4121C43.7478 36.2812 44.8067 35.2896 45.0136 34.013L28.1415 23.3436Z" fill="#EE5E6C"/>
</g>
<defs>
<clipPath id="clip0_1025_5252">
<rect width="43" height="43" fill="white"/>
</clipPath>
</defs>
</svg>
