<?xml version="1.0" encoding="UTF-8"?>
<svg id="Coloured" xmlns="http://www.w3.org/2000/svg" viewBox="0 0 1200 630">
  <defs>
    <style>
      .cls-1 {
        fill: #fcb033;
      }

      .cls-1, .cls-2, .cls-3, .cls-4, .cls-5 {
        stroke-miterlimit: 10;
      }

      .cls-1, .cls-3, .cls-4 {
        stroke: #414042;
        stroke-width: .63px;
      }

      .cls-2 {
        fill: none;
      }

      .cls-2, .cls-5 {
        stroke: #272838;
        stroke-width: 6.33px;
      }

      .cls-6, .cls-3, .cls-5 {
        fill: #ffe373;
      }

      .cls-4 {
        fill: #ee5e6c;
      }

      .cls-7 {
        fill: #272838;
      }
    </style>
  </defs>
  <rect class="cls-7" width="1200" height="630"/>
  <g>
    <g>
      <path class="cls-6" d="m361.1,458.71h17.38c.9,0,1.65.29,2.26.86.6.57.91,1.31.91,2.21s-.3,1.57-.91,2.1c-.61.54-1.36.8-2.26.8h-14.53l.47-.88v10.12l-.42-.42h12.14c.9,0,1.65.29,2.26.86.6.57.91,1.31.91,2.21s-.3,1.57-.91,2.1c-.61.54-1.36.8-2.26.8h-11.99l.26-.42v10.48l-.42-.47h14.48c.9,0,1.65.3,2.26.91.6.61.91,1.31.91,2.1,0,.87-.3,1.58-.91,2.13-.61.55-1.36.83-2.26.83h-17.38c-.9,0-1.65-.3-2.26-.91-.61-.6-.91-1.36-.91-2.26v-29.99c0-.9.3-1.65.91-2.26s1.36-.91,2.26-.91Z"/>
      <path class="cls-6" d="m411.64,458.66c.48,0,.99.13,1.53.39.54.26.94.6,1.22,1.01l12.61,19.41-2.59-.1,12.92-19.3c.66-.93,1.5-1.4,2.54-1.4.83,0,1.57.29,2.23.88.66.59.99,1.35.99,2.28v30.05c0,.9-.29,1.65-.88,2.26-.59.61-1.37.91-2.33.91s-1.76-.3-2.36-.91c-.61-.6-.91-1.36-.91-2.26v-24.44l2.02.47-10.59,16.14c-.31.38-.7.71-1.17.99-.47.28-.94.4-1.43.36-.45.04-.91-.09-1.38-.36-.47-.28-.86-.61-1.17-.99l-9.91-15.67,1.35-2.75v26.26c0,.9-.28,1.65-.83,2.26-.55.61-1.28.91-2.18.91s-1.57-.3-2.13-.91c-.55-.6-.83-1.36-.83-2.26v-30.05c0-.86.32-1.61.96-2.23.64-.62,1.41-.93,2.31-.93Z"/>
      <path class="cls-6" d="m478.11,491.87c0,.9-.33,1.65-.99,2.26-.66.61-1.42.91-2.28.91-.97,0-1.75-.3-2.33-.91-.59-.6-.88-1.36-.88-2.26v-29.99c0-.9.31-1.65.93-2.26.62-.61,1.42-.91,2.39-.91.83,0,1.56.3,2.21.91.64.61.96,1.36.96,2.26v29.99Z"/>
      <path class="cls-6" d="m526.68,488.96c.9,0,1.65.29,2.26.86.6.57.91,1.31.91,2.21s-.3,1.58-.91,2.15c-.61.57-1.36.86-2.26.86h-16.86c-.9,0-1.65-.3-2.26-.91-.61-.6-.91-1.36-.91-2.26v-29.99c0-.9.31-1.65.93-2.26.62-.61,1.42-.91,2.39-.91.83,0,1.56.3,2.21.91.64.61.96,1.36.96,2.26v27.97l-1.14-.88h14.69Z"/>
      <path class="cls-6" d="m576.6,458.56c.8,0,1.51.3,2.15.91.64.61.96,1.38.96,2.31,0,.31-.04.63-.13.96-.09.33-.23.65-.44.96l-11.78,16.87.93-3.58v14.89c0,.9-.3,1.65-.91,2.26-.61.61-1.31.91-2.1.91-.87,0-1.6-.3-2.21-.91-.61-.6-.91-1.36-.91-2.26v-14.48l.42,1.66-11.21-14.89c-.35-.45-.59-.88-.73-1.3-.14-.42-.21-.8-.21-1.14,0-.93.36-1.69,1.09-2.28.73-.59,1.47-.88,2.23-.88.97,0,1.82.48,2.54,1.45l9.96,13.75-1.45-.21,9.19-13.44c.73-1.04,1.59-1.56,2.59-1.56Z"/>
      <path class="cls-6" d="m656.67,458.71c3.32,0,5.79.78,7.42,2.33,1.63,1.56,2.44,3.86,2.44,6.9,0,1.63-.4,3.05-1.19,4.28-.8,1.23-1.97,2.18-3.53,2.85s-3.48,1.01-5.76,1.01l.21-2.33c1.07,0,2.3.15,3.68.44,1.38.29,2.72.81,4.02,1.56s2.37,1.78,3.22,3.11c.85,1.33,1.27,3.04,1.27,5.11,0,2.28-.37,4.15-1.12,5.6-.74,1.45-1.72,2.58-2.93,3.37-1.21.8-2.51,1.34-3.89,1.63-1.38.29-2.72.44-4,.44h-12.92c-.9,0-1.65-.3-2.26-.91-.61-.6-.91-1.36-.91-2.26v-29.99c0-.9.3-1.65.91-2.26s1.36-.91,2.26-.91h13.08Zm-.93,6.12h-9.24l.67-.83v9.39l-.62-.47h9.34c1,0,1.9-.33,2.7-.99s1.19-1.61,1.19-2.85c0-1.49-.37-2.57-1.12-3.24-.74-.67-1.72-1.01-2.93-1.01Zm.42,14.22h-9.44l.47-.42v10.95l-.52-.52h9.86c1.59,0,2.85-.42,3.79-1.27.93-.85,1.4-2.12,1.4-3.81,0-1.56-.31-2.68-.93-3.37-.62-.69-1.37-1.12-2.23-1.3-.87-.17-1.66-.26-2.39-.26Z"/>
      <path class="cls-6" d="m728.59,476.87c0,2.59-.43,5.02-1.3,7.26-.87,2.25-2.08,4.23-3.66,5.94-1.57,1.71-3.44,3.05-5.6,4.02-2.16.97-4.52,1.45-7.08,1.45s-4.91-.48-7.06-1.45c-2.15-.97-4-2.31-5.58-4.02-1.57-1.71-2.79-3.69-3.66-5.94-.87-2.25-1.3-4.67-1.3-7.26s.43-5.02,1.3-7.26c.86-2.25,2.08-4.23,3.66-5.94,1.57-1.71,3.43-3.05,5.58-4.02,2.14-.97,4.5-1.45,7.06-1.45s4.92.48,7.08,1.45c2.16.97,4.03,2.31,5.6,4.02,1.57,1.71,2.79,3.69,3.66,5.94.86,2.25,1.3,4.67,1.3,7.26Zm-6.75,0c0-2.32-.47-4.42-1.4-6.3-.93-1.89-2.21-3.38-3.84-4.49-1.63-1.11-3.51-1.66-5.66-1.66s-4.03.55-5.66,1.66c-1.63,1.11-2.9,2.59-3.81,4.46s-1.38,3.98-1.38,6.33.46,4.42,1.38,6.3c.92,1.89,2.19,3.38,3.81,4.49s3.51,1.66,5.66,1.66,4.03-.55,5.66-1.66c1.63-1.11,2.91-2.6,3.84-4.49.93-1.88,1.4-3.99,1.4-6.3Z"/>
      <path class="cls-6" d="m777.11,458.56c.8,0,1.51.3,2.15.91.64.61.96,1.38.96,2.31,0,.31-.04.63-.13.96-.09.33-.23.65-.44.96l-11.78,16.87.93-3.58v14.89c0,.9-.3,1.65-.91,2.26-.61.61-1.31.91-2.1.91-.87,0-1.6-.3-2.21-.91-.61-.6-.91-1.36-.91-2.26v-14.48l.42,1.66-11.21-14.89c-.35-.45-.59-.88-.73-1.3-.14-.42-.21-.8-.21-1.14,0-.93.36-1.69,1.09-2.28.73-.59,1.47-.88,2.23-.88.97,0,1.82.48,2.54,1.45l9.96,13.75-1.45-.21,9.19-13.44c.73-1.04,1.59-1.56,2.59-1.56Z"/>
      <path class="cls-6" d="m821.22,458.71c2.49,0,4.71.47,6.64,1.4,1.94.93,3.57,2.24,4.9,3.92s2.34,3.62,3.01,5.81c.67,2.2,1.01,4.54,1.01,7.03,0,3.36-.61,6.41-1.82,9.16-1.21,2.75-2.97,4.94-5.27,6.56s-5.13,2.44-8.48,2.44h-12.4c-.9,0-1.65-.3-2.26-.91-.61-.6-.91-1.36-.91-2.26v-29.99c0-.9.3-1.65.91-2.26s1.36-.91,2.26-.91h12.4Zm-.52,30.36c2.18,0,3.96-.56,5.34-1.69,1.38-1.12,2.4-2.61,3.04-4.46.64-1.85.96-3.87.96-6.04,0-1.63-.18-3.17-.54-4.64-.36-1.47-.93-2.77-1.69-3.89-.76-1.12-1.73-2.01-2.91-2.67-1.18-.66-2.58-.99-4.2-.99h-9.08l.52-.47v25.43l-.31-.57h8.87Z"/>
    </g>
    <g>
      <path class="cls-6" d="m349.97,523.42h2.04l4.32,10.52,4.32-10.52h2.04l-5.1,12.19,6.08,14.11,11.09-26.5h2.28l-12.39,28.95h-1.92l-6.36-14.88-6.4,14.88h-1.92l-12.35-28.95h2.24l11.13,26.5,5.99-14.11-5.1-12.19Z"/>
      <path class="cls-6" d="m387.11,552.57c-1.5,0-2.88-.29-4.16-.87-1.28-.58-2.39-1.38-3.32-2.4s-1.67-2.19-2.2-3.53c-.53-1.34-.79-2.76-.79-4.25,0-2,.45-3.82,1.34-5.44.9-1.62,2.13-2.93,3.71-3.92,1.58-.99,3.34-1.48,5.3-1.48s3.79.5,5.34,1.5c1.55,1,2.78,2.32,3.69,3.96.91,1.64,1.37,3.43,1.37,5.38v.49c0,.16-.01.3-.04.41h-18.59c.11,1.6.56,3.04,1.34,4.34.79,1.3,1.8,2.32,3.04,3.06,1.24.74,2.59,1.12,4.06,1.12s2.85-.38,4.16-1.14c1.3-.76,2.21-1.74,2.73-2.94l1.79.49c-.41,1.01-1.05,1.9-1.94,2.69-.88.79-1.92,1.41-3.1,1.86-1.18.45-2.43.67-3.73.67Zm-8.44-11.74h16.76c-.11-1.65-.54-3.11-1.3-4.38-.76-1.27-1.76-2.27-3-3-1.24-.73-2.6-1.1-4.1-1.1s-2.85.37-4.08,1.1c-1.22.73-2.22,1.73-2.98,3s-1.2,2.73-1.3,4.38Z"/>
      <path class="cls-6" d="m411.78,552.57c-1.66,0-3.21-.44-4.65-1.33-1.44-.88-2.57-1.99-3.38-3.32v4.24h-1.88v-29.76h2.04v13.25c1-1.47,2.19-2.66,3.57-3.59,1.37-.92,2.96-1.39,4.75-1.39,1.52,0,2.88.31,4.06.93,1.18.62,2.2,1.46,3.04,2.52.84,1.06,1.49,2.24,1.94,3.53.45,1.3.67,2.64.67,4.02s-.26,2.81-.77,4.12c-.52,1.31-1.24,2.48-2.16,3.49-.92,1.02-2,1.81-3.22,2.4-1.22.58-2.56.87-4,.87Zm-.41-1.83c1.25,0,2.39-.25,3.43-.75,1.03-.5,1.92-1.18,2.67-2.05.75-.87,1.33-1.84,1.75-2.92.42-1.08.63-2.19.63-3.33,0-1.6-.34-3.09-1.02-4.49-.68-1.39-1.63-2.52-2.85-3.39-1.22-.87-2.64-1.3-4.24-1.3-1.2,0-2.3.26-3.3.79s-1.88,1.21-2.63,2.05c-.75.84-1.38,1.76-1.9,2.76v6.98c.11.79.41,1.52.9,2.21.49.69,1.11,1.29,1.85,1.79.75.5,1.54.9,2.37,1.2.83.3,1.61.45,2.34.45Z"/>
      <path class="cls-6" d="m437.91,552.16v-28.95h9.62c3.07,0,5.62.65,7.64,1.94,2.02,1.29,3.55,3.03,4.57,5.22,1.02,2.19,1.53,4.61,1.53,7.28,0,2.94-.56,5.49-1.67,7.67s-2.71,3.86-4.77,5.06c-2.07,1.2-4.5,1.79-7.3,1.79h-9.62Zm21.28-14.51c0-2.42-.46-4.58-1.37-6.48-.91-1.9-2.23-3.39-3.96-4.46-1.73-1.07-3.84-1.61-6.34-1.61h-7.54v25.2h7.54c2.53,0,4.66-.56,6.4-1.67,1.74-1.11,3.05-2.63,3.93-4.55.88-1.92,1.33-4.06,1.33-6.42Z"/>
      <path class="cls-6" d="m475.38,552.57c-1.5,0-2.88-.29-4.16-.87-1.28-.58-2.39-1.38-3.32-2.4s-1.67-2.19-2.2-3.53c-.53-1.34-.79-2.76-.79-4.25,0-2,.45-3.82,1.34-5.44.9-1.62,2.13-2.93,3.71-3.92,1.58-.99,3.34-1.48,5.3-1.48s3.79.5,5.34,1.5c1.55,1,2.78,2.32,3.69,3.96.91,1.64,1.37,3.43,1.37,5.38v.49c0,.16-.01.3-.04.41h-18.59c.11,1.6.56,3.04,1.34,4.34.79,1.3,1.8,2.32,3.04,3.06,1.24.74,2.59,1.12,4.06,1.12s2.85-.38,4.16-1.14c1.3-.76,2.21-1.74,2.73-2.94l1.79.49c-.41,1.01-1.05,1.9-1.94,2.69-.88.79-1.92,1.41-3.1,1.86-1.18.45-2.43.67-3.73.67Zm-8.44-11.74h16.76c-.11-1.65-.54-3.11-1.3-4.38-.76-1.27-1.76-2.27-3-3-1.24-.73-2.6-1.1-4.1-1.1s-2.85.37-4.08,1.1c-1.22.73-2.22,1.73-2.98,3s-1.2,2.73-1.3,4.38Z"/>
      <path class="cls-6" d="m496.83,552.57c-1.69,0-3.25-.29-4.69-.86-1.44-.57-2.71-1.44-3.79-2.61l.94-1.43c1.17,1.12,2.35,1.92,3.55,2.43s2.5.75,3.91.75c1.82,0,3.3-.38,4.42-1.14s1.69-1.81,1.69-3.16c0-.92-.27-1.63-.79-2.13-.53-.5-1.29-.91-2.28-1.22-.99-.31-2.2-.64-3.61-1-1.44-.38-2.66-.77-3.65-1.18-.99-.41-1.73-.93-2.22-1.58-.49-.65-.73-1.53-.73-2.64,0-1.38.35-2.53,1.04-3.43.69-.91,1.63-1.58,2.81-2.03,1.18-.45,2.49-.67,3.93-.67,1.66,0,3.11.27,4.34.82,1.24.54,2.18,1.26,2.83,2.16l-1.1,1.3c-.68-.87-1.56-1.51-2.65-1.94-1.09-.42-2.28-.63-3.59-.63-.98,0-1.9.14-2.77.41s-1.57.71-2.1,1.32c-.53.61-.79,1.43-.79,2.46,0,.81.2,1.45.59,1.91.39.46.99.83,1.77,1.12.79.28,1.77.59,2.94.91,1.66.41,3.08.83,4.28,1.26,1.2.43,2.12.99,2.77,1.68s.98,1.66.98,2.9c0,1.92-.73,3.44-2.2,4.55s-3.41,1.67-5.83,1.67Z"/>
      <path class="cls-6" d="m509.67,526.15v-3.75h2.04v3.75h-2.04Zm0,26.01v-21.2h2.04v21.2h-2.04Z"/>
      <path class="cls-6" d="m526.67,552.57c-1.44,0-2.78-.3-4.02-.9-1.24-.6-2.3-1.42-3.18-2.47-.88-1.05-1.58-2.21-2.08-3.51s-.75-2.63-.75-4.02.24-2.83.71-4.16,1.16-2.51,2.04-3.53c.88-1.02,1.92-1.83,3.12-2.43,1.2-.6,2.53-.9,4-.9,1.85,0,3.46.48,4.83,1.43,1.37.95,2.53,2.12,3.49,3.51v-4.61h1.88v21.58c0,1.9-.46,3.5-1.39,4.8s-2.15,2.27-3.67,2.91c-1.52.64-3.17.96-4.93.96-2.47,0-4.44-.45-5.89-1.34-1.45-.9-2.63-2.08-3.53-3.55l1.39-.94c.84,1.41,1.98,2.46,3.42,3.14,1.44.68,2.98,1.02,4.61,1.02,1.44,0,2.77-.26,3.98-.79,1.21-.52,2.17-1.3,2.89-2.34.72-1.03,1.08-2.3,1.08-3.81v-4.65c-.84,1.39-1.99,2.49-3.45,3.32s-2.97,1.24-4.55,1.24Zm.49-1.75c.9,0,1.77-.16,2.61-.49s1.62-.77,2.32-1.33c.71-.56,1.29-1.17,1.75-1.85s.73-1.36.82-2.04v-6.97c-.41-1.09-1.03-2.06-1.85-2.92-.83-.86-1.76-1.52-2.79-2-1.03-.48-2.09-.71-3.18-.71-1.28,0-2.42.27-3.42.82-1.01.54-1.86,1.26-2.55,2.14-.69.88-1.22,1.88-1.59,2.98-.37,1.1-.55,2.2-.55,3.28,0,1.22.22,2.38.65,3.47.43,1.09,1.04,2.06,1.81,2.92.77.86,1.67,1.52,2.69,2s2.11.71,3.28.71Z"/>
      <path class="cls-6" d="m560.39,552.16h-2.04v-11.77c0-2.71-.39-4.69-1.16-5.95-.77-1.26-2-1.89-3.69-1.89-1.2,0-2.37.28-3.53.85s-2.16,1.35-3.02,2.33c-.86.99-1.47,2.1-1.86,3.35v13.08h-2.04v-21.16h1.92v5.08c.57-1.08,1.33-2.02,2.28-2.82.95-.8,2.01-1.43,3.18-1.89s2.38-.69,3.63-.69c1.17,0,2.15.21,2.96.63.8.42,1.45,1.02,1.96,1.81s.86,1.76,1.08,2.92c.22,1.16.33,2.49.33,3.98v12.14Z"/>
      <path class="cls-6" d="m597.53,552.16l-14.68-15.42c-1.17-1.23-2.11-2.29-2.81-3.16-.71-.87-1.21-1.66-1.51-2.38s-.45-1.4-.45-2.07c0-1.13.31-2.15.94-3.08.62-.93,1.47-1.67,2.55-2.21,1.07-.55,2.28-.83,3.61-.83,1.25,0,2.36.24,3.34.71s1.75,1.11,2.3,1.93c.56.82.84,1.77.84,2.84,0,1.15-.35,2.21-1.04,3.16-.69.95-1.6,1.84-2.73,2.68s-2.33,1.67-3.61,2.5c-1.14.78-2.21,1.56-3.2,2.35-.99.79-1.78,1.64-2.37,2.55-.58.91-.88,1.96-.88,3.14,0,1.29.37,2.36,1.1,3.22.73.86,1.66,1.51,2.79,1.95,1.13.44,2.28.66,3.45.66,1.55,0,2.96-.35,4.24-1.04,1.28-.69,2.38-1.64,3.32-2.85.94-1.21,1.66-2.59,2.16-4.14.5-1.55.75-3.18.75-4.89h1.79c0,1.96-.31,3.81-.92,5.54-.61,1.74-1.47,3.29-2.59,4.65-1.12,1.36-2.43,2.43-3.96,3.22-1.52.79-3.21,1.18-5.06,1.18-1.6,0-3.1-.31-4.48-.93-1.39-.62-2.5-1.49-3.34-2.62-.84-1.13-1.26-2.47-1.26-4.03,0-1.42.34-2.67,1.02-3.74.68-1.07,1.58-2.05,2.69-2.92,1.11-.87,2.3-1.72,3.55-2.56,1.33-.86,2.5-1.65,3.51-2.39,1-.74,1.79-1.47,2.34-2.21.56-.74.84-1.53.84-2.39,0-1.12-.44-2.06-1.33-2.79-.88-.74-1.99-1.11-3.32-1.11-.98,0-1.86.2-2.63.6-.77.4-1.39.94-1.83,1.61s-.67,1.41-.67,2.21c0,.46.11.95.33,1.47s.64,1.18,1.26,1.97c.62.79,1.54,1.8,2.73,3.03l15.94,16.59h-2.73Z"/>
      <path class="cls-6" d="m614.82,552.16v-28.95h9.62c3.07,0,5.62.65,7.64,1.94,2.02,1.29,3.55,3.03,4.57,5.22,1.02,2.19,1.53,4.61,1.53,7.28,0,2.94-.56,5.49-1.67,7.67s-2.71,3.86-4.77,5.06c-2.07,1.2-4.5,1.79-7.3,1.79h-9.62Zm21.28-14.51c0-2.42-.46-4.58-1.37-6.48-.91-1.9-2.23-3.39-3.96-4.46-1.73-1.07-3.84-1.61-6.34-1.61h-7.54v25.2h7.54c2.53,0,4.66-.56,6.4-1.67,1.74-1.11,3.05-2.63,3.93-4.55.88-1.92,1.33-4.06,1.33-6.42Z"/>
      <path class="cls-6" d="m652.29,552.57c-1.5,0-2.88-.29-4.16-.87-1.28-.58-2.39-1.38-3.32-2.4s-1.67-2.19-2.2-3.53c-.53-1.34-.79-2.76-.79-4.25,0-2,.45-3.82,1.34-5.44.9-1.62,2.13-2.93,3.71-3.92,1.58-.99,3.34-1.48,5.3-1.48s3.79.5,5.34,1.5c1.55,1,2.78,2.32,3.69,3.96.91,1.64,1.37,3.43,1.37,5.38v.49c0,.16-.01.3-.04.41h-18.59c.11,1.6.56,3.04,1.34,4.34.79,1.3,1.8,2.32,3.04,3.06,1.24.74,2.59,1.12,4.06,1.12s2.85-.38,4.16-1.14c1.3-.76,2.21-1.74,2.73-2.94l1.79.49c-.41,1.01-1.05,1.9-1.94,2.69-.88.79-1.92,1.41-3.1,1.86-1.18.45-2.43.67-3.73.67Zm-8.44-11.74h16.76c-.11-1.65-.54-3.11-1.3-4.38-.76-1.27-1.76-2.27-3-3-1.24-.73-2.6-1.1-4.1-1.1s-2.85.37-4.08,1.1c-1.22.73-2.22,1.73-2.98,3s-1.2,2.73-1.3,4.38Z"/>
      <path class="cls-6" d="m673,552.16l-8.85-21.16h2.16l7.79,19,7.83-19h2.04l-8.85,21.16h-2.12Z"/>
      <path class="cls-6" d="m696.28,552.57c-1.5,0-2.88-.29-4.16-.87-1.28-.58-2.39-1.38-3.32-2.4s-1.67-2.19-2.2-3.53c-.53-1.34-.79-2.76-.79-4.25,0-2,.45-3.82,1.34-5.44.9-1.62,2.13-2.93,3.71-3.92,1.58-.99,3.34-1.48,5.3-1.48s3.79.5,5.34,1.5c1.55,1,2.78,2.32,3.69,3.96.91,1.64,1.37,3.43,1.37,5.38v.49c0,.16-.01.3-.04.41h-18.59c.11,1.6.56,3.04,1.34,4.34.79,1.3,1.8,2.32,3.04,3.06,1.24.74,2.59,1.12,4.06,1.12s2.85-.38,4.16-1.14c1.3-.76,2.21-1.74,2.73-2.94l1.79.49c-.41,1.01-1.05,1.9-1.94,2.69-.88.79-1.92,1.41-3.1,1.86-1.18.45-2.43.67-3.73.67Zm-8.44-11.74h16.76c-.11-1.65-.54-3.11-1.3-4.38-.76-1.27-1.76-2.27-3-3-1.24-.73-2.6-1.1-4.1-1.1s-2.85.37-4.08,1.1c-1.22.73-2.22,1.73-2.98,3s-1.2,2.73-1.3,4.38Z"/>
      <path class="cls-6" d="m711.21,522.4h2.08v25.71c0,.98.2,1.66.61,2.03.41.37.94.55,1.59.55.43,0,.88-.04,1.35-.12.46-.08.87-.19,1.22-.33l.41,1.67c-.46.16-1.03.31-1.71.45-.68.14-1.26.2-1.75.2-1.14,0-2.06-.35-2.75-1.05s-1.04-1.63-1.04-2.81v-26.32Z"/>
      <path class="cls-6" d="m730.49,552.57c-1.5,0-2.87-.29-4.14-.85-1.26-.57-2.36-1.36-3.28-2.38-.92-1.02-1.65-2.18-2.16-3.49-.52-1.31-.77-2.7-.77-4.16s.26-2.93.77-4.25c.52-1.31,1.24-2.48,2.18-3.49.94-1.02,2.04-1.81,3.3-2.4,1.26-.58,2.63-.87,4.1-.87s2.83.29,4.08.87,2.35,1.38,3.3,2.4c.95,1.02,1.69,2.18,2.2,3.49.52,1.31.77,2.73.77,4.25s-.26,2.85-.77,4.16c-.52,1.31-1.24,2.48-2.18,3.49s-2.04,1.81-3.3,2.38-2.63.85-4.1.85Zm-8.32-10.89c0,1.68.37,3.2,1.12,4.57.75,1.37,1.75,2.46,3,3.27,1.25.81,2.64,1.22,4.16,1.22s2.92-.41,4.18-1.24c1.26-.83,2.27-1.93,3.02-3.33.75-1.39,1.12-2.92,1.12-4.57s-.37-3.17-1.12-4.55c-.75-1.38-1.75-2.48-3-3.31-1.25-.83-2.64-1.24-4.16-1.24s-2.92.42-4.18,1.26c-1.26.84-2.27,1.95-3.02,3.33-.75,1.38-1.12,2.91-1.12,4.59Z"/>
      <path class="cls-6" d="m756.09,552.57c-1.82,0-3.45-.48-4.87-1.44-1.43-.96-2.58-2.13-3.45-3.51v13.23h-2.04v-29.85h1.88v4.26c.87-1.35,2.02-2.46,3.47-3.31,1.44-.85,2.96-1.28,4.57-1.28,1.49,0,2.85.31,4.08.92,1.22.61,2.29,1.43,3.2,2.48.91,1.04,1.62,2.21,2.12,3.51s.75,2.65.75,4.06c0,1.95-.41,3.76-1.22,5.42s-1.95,3-3.4,4-3.15,1.5-5.08,1.5Zm-.49-1.83c1.25,0,2.37-.26,3.36-.77.99-.51,1.84-1.2,2.55-2.07.71-.87,1.25-1.84,1.63-2.92s.57-2.19.57-3.33c0-1.22-.22-2.37-.65-3.47-.44-1.1-1.04-2.06-1.81-2.9-.78-.84-1.67-1.51-2.69-2.01-1.02-.5-2.13-.75-3.32-.75-.73,0-1.52.15-2.34.45-.83.3-1.62.72-2.37,1.26-.75.54-1.37,1.16-1.85,1.85s-.79,1.4-.9,2.13v6.95c.49,1.03,1.12,1.97,1.9,2.82.78.85,1.68,1.53,2.71,2.03,1.03.5,2.11.75,3.22.75Z"/>
      <path class="cls-6" d="m801.84,552.16h-2.04v-11.77c0-2.68-.42-4.66-1.24-5.93-.83-1.27-2.1-1.91-3.81-1.91s-3.28.62-4.63,1.85-2.29,2.81-2.83,4.73v13.03h-2.04v-11.77c0-2.71-.41-4.69-1.22-5.95-.82-1.26-2.08-1.89-3.79-1.89s-3.28.6-4.63,1.81c-1.35,1.2-2.3,2.78-2.88,4.73v13.08h-2.04v-21.16h1.92v5.08c.9-1.73,2.05-3.07,3.47-4,1.41-.93,2.96-1.4,4.65-1.4s3.21.52,4.34,1.56c1.13,1.04,1.8,2.43,2.02,4.16,1.01-1.9,2.2-3.32,3.59-4.29,1.39-.96,2.96-1.44,4.73-1.44,1.17,0,2.15.21,2.96.63.8.42,1.47,1.03,2,1.83.53.8.91,1.78,1.14,2.94.23,1.17.35,2.48.35,3.94v12.14Z"/>
      <path class="cls-6" d="m817.01,552.57c-1.5,0-2.88-.29-4.16-.87-1.28-.58-2.39-1.38-3.32-2.4s-1.67-2.19-2.2-3.53c-.53-1.34-.79-2.76-.79-4.25,0-2,.45-3.82,1.34-5.44.9-1.62,2.13-2.93,3.71-3.92,1.58-.99,3.34-1.48,5.3-1.48s3.79.5,5.34,1.5c1.55,1,2.78,2.32,3.69,3.96.91,1.64,1.37,3.43,1.37,5.38v.49c0,.16-.01.3-.04.41h-18.59c.11,1.6.56,3.04,1.34,4.34.79,1.3,1.8,2.32,3.04,3.06,1.24.74,2.59,1.12,4.06,1.12s2.85-.38,4.16-1.14c1.3-.76,2.21-1.74,2.73-2.94l1.79.49c-.41,1.01-1.05,1.9-1.94,2.69-.88.79-1.92,1.41-3.1,1.86-1.18.45-2.43.67-3.73.67Zm-8.44-11.74h16.76c-.11-1.65-.54-3.11-1.3-4.38-.76-1.27-1.76-2.27-3-3-1.24-.73-2.6-1.1-4.1-1.1s-2.85.37-4.08,1.1c-1.22.73-2.22,1.73-2.98,3s-1.2,2.73-1.3,4.38Z"/>
      <path class="cls-6" d="m849.1,552.16h-2.04v-11.77c0-2.71-.39-4.69-1.16-5.95-.77-1.26-2-1.89-3.69-1.89-1.2,0-2.37.28-3.53.85s-2.16,1.35-3.02,2.33c-.86.99-1.47,2.1-1.86,3.35v13.08h-2.04v-21.16h1.92v5.08c.57-1.08,1.33-2.02,2.28-2.82.95-.8,2.01-1.43,3.18-1.89s2.38-.69,3.63-.69c1.17,0,2.15.21,2.96.63.8.42,1.45,1.02,1.96,1.81s.86,1.76,1.08,2.92c.22,1.16.33,2.49.33,3.98v12.14Z"/>
      <path class="cls-6" d="m864.51,551.3c-.14.05-.41.19-.82.41-.41.22-.92.41-1.55.59s-1.32.27-2.08.27-1.42-.14-2.06-.43c-.64-.29-1.15-.72-1.53-1.29-.38-.58-.57-1.27-.57-2.09v-16.08h-2.98v-1.67h2.98v-7.26h2.04v7.26h4.93v1.67h-4.93v15.6c.05.79.34,1.39.86,1.79.52.4,1.11.59,1.79.59.84,0,1.58-.14,2.2-.43s.99-.47,1.1-.55l.61,1.63Z"/>
    </g>
    <path class="cls-3" d="m645.55,76.82s123.07,32.9,125.58,166.32c0,0,8.25,80.91-94.94,106.2,0,0-80.57,9.41-76.93-77.19,0,0,12.41-26.5,31.31-28.22,18.9-1.72,61.41-6.87,73.78-51.92,12.37-45.04-20.02-87.91-58.81-115.19Z"/>
    <path class="cls-1" d="m764.28,289.06s-32.9,123.07-166.32,125.58c0,0-80.91,8.25-106.2-94.94,0,0-9.41-80.57,77.19-76.93,0,0,26.5,12.41,28.22,31.31,1.72,18.9,6.87,61.41,51.92,73.78,45.04,12.37,87.91-20.02,115.19-58.81Z"/>
    <path class="cls-4" d="m547.61,408.1s-102.84-20.81-122.24-153.57c-19.4-132.76,140.41-193.99,178.31-184.9,37.9,9.09,77.3,16.9,99.69,86.79,22.38,69.89-61.33,86.14-61.33,86.14,0,0-24.41-5.39-43.6,27.89,0,0-19.45-48.51-79.73-16.11,0,0-42.27,24.95-21.43,89.26,0,0,15.8,31.77,50.33,64.5Z"/>
    <path class="cls-2" d="m598.37,69.63c59.04,0,106.9,47.86,106.9,106.9"/>
    <path class="cls-2" d="m705.34,176.53c0,36.5-29.59,66.09-66.09,66.09"/>
    <path class="cls-2" d="m771.43,242.65c0,59.04-47.86,106.9-106.9,106.9"/>
    <path class="cls-2" d="m664.53,349.63c-36.5,0-66.09-29.59-66.09-66.09"/>
    <path class="cls-2" d="m598.4,283.54c0-22.58,18.31-40.89,40.89-40.89"/>
    <path class="cls-2" d="m771.39,242.58c0,59.04-47.86,106.9-106.9,106.9"/>
    <path class="cls-2" d="m664.49,349.55c-36.5,0-66.09-29.59-66.09-66.09"/>
    <path class="cls-2" d="m598.37,415.64c-59.04,0-106.9-47.86-106.9-106.9"/>
    <path class="cls-2" d="m491.39,308.74c0-36.5,29.59-66.09,66.09-66.09"/>
    <path class="cls-2" d="m557.48,242.62c22.58,0,40.89,18.31,40.89,40.89"/>
    <path class="cls-2" d="m598.37,415.64c-59.04,0-106.9-47.86-106.9-106.9"/>
    <path class="cls-2" d="m491.39,308.74c0-36.5,29.59-66.09,66.09-66.09"/>
    <path class="cls-2" d="m557.48,242.62c22.58,0,40.89,18.31,40.89,40.89"/>
    <path class="cls-2" d="m598.37,415.64c95.89,0,173.67-77.13,173.67-173.02,0-95.89-76.99-172.98-172.89-172.98"/>
    <circle class="cls-5" cx="608.32" cy="176.53" r="31.13"/>
    <circle class="cls-2" cx="598.44" cy="242.62" r="173.07"/>
  </g>
</svg>