<?xml version="1.0" encoding="UTF-8"?>
<svg id="Coloured" xmlns="http://www.w3.org/2000/svg" viewBox="0 0 48.65 48.76">
  <defs>
    <style>
      .cls-1 {
        fill: #fcb033;
      }

      .cls-1, .cls-2, .cls-3, .cls-4, .cls-5 {
        stroke-miterlimit: 10;
      }

      .cls-1, .cls-4, .cls-5 {
        stroke: #414042;
        stroke-width: .09px;
      }

      .cls-2 {
        fill: none;
      }

      .cls-2, .cls-3 {
        stroke: #272838;
        stroke-width: .87px;
      }

      .cls-3, .cls-4 {
        fill: #ffe373;
      }

      .cls-5 {
        fill: #ee5e6c;
      }
    </style>
  </defs>
  <path class="cls-4" d="m30.78,1.44s16.96,4.55,17.31,23.01c0,0,1.14,11.19-13.08,14.69,0,0-11.1,1.3-10.6-10.68,0,0,1.71-3.67,4.32-3.9,2.61-.24,8.46-.95,10.17-7.18,1.7-6.23-2.76-12.16-8.11-15.94Z"/>
  <path class="cls-1" d="m47.14,30.81s-4.53,17.03-22.92,17.37c0,0-11.15,1.14-14.64-13.14,0,0-1.3-11.15,10.64-10.64,0,0,3.65,1.72,3.89,4.33.24,2.62.95,8.5,7.15,10.21,6.21,1.71,12.11-2.77,15.87-8.14Z"/>
  <path class="cls-5" d="m17.28,47.28S3.11,44.4.44,26.03,19.79-.81,25.01.45c5.22,1.26,10.65,2.34,13.74,12.01s-8.45,11.92-8.45,11.92c0,0-3.36-.75-6.01,3.86,0,0-2.68-6.71-10.99-2.23,0,0-5.82,3.45-2.95,12.35,0,0,2.18,4.4,6.94,8.92Z"/>
  <path class="cls-2" d="m24.28.45c8.14,0,14.73,6.62,14.73,14.79"/>
  <path class="cls-2" d="m39.02,15.24c0,5.05-4.08,9.14-9.11,9.14"/>
  <path class="cls-2" d="m48.13,24.39c0,8.17-6.6,14.79-14.73,14.79"/>
  <path class="cls-2" d="m33.4,39.19c-5.03,0-9.11-4.09-9.11-9.14"/>
  <path class="cls-2" d="m24.28,30.04c0-3.12,2.52-5.66,5.64-5.66"/>
  <path class="cls-2" d="m48.12,24.38c0,8.17-6.6,14.79-14.73,14.79"/>
  <path class="cls-2" d="m33.39,39.18c-5.03,0-9.11-4.09-9.11-9.14"/>
  <path class="cls-2" d="m24.28,48.32c-8.14,0-14.73-6.62-14.73-14.79"/>
  <path class="cls-2" d="m9.54,33.53c0-5.05,4.08-9.14,9.11-9.14"/>
  <path class="cls-2" d="m18.64,24.38c3.11,0,5.64,2.53,5.64,5.66"/>
  <path class="cls-2" d="m24.28,48.32c-8.14,0-14.73-6.62-14.73-14.79"/>
  <path class="cls-2" d="m9.54,33.53c0-5.05,4.08-9.14,9.11-9.14"/>
  <path class="cls-2" d="m18.64,24.38c3.11,0,5.64,2.53,5.64,5.66"/>
  <path class="cls-2" d="m24.28,48.32c13.22,0,23.93-10.67,23.93-23.94,0-13.27-10.61-23.93-23.83-23.93"/>
  <ellipse class="cls-3" cx="25.65" cy="15.24" rx="4.29" ry="4.31"/>
  <ellipse class="cls-2" cx="24.29" cy="24.38" rx="23.85" ry="23.94"/>
</svg>