<?xml version="1.0" encoding="UTF-8"?>
<svg id="Coloured" xmlns="http://www.w3.org/2000/svg" viewBox="0 0 32.43 32.51">
  <defs>
    <style>
      .cls-1 {
        fill: #ee5e6c;
      }

      .cls-1, .cls-2, .cls-3, .cls-4, .cls-5 {
        stroke-miterlimit: 10;
      }

      .cls-1, .cls-2, .cls-5 {
        stroke: #414042;
        stroke-width: .06px;
      }

      .cls-2, .cls-4 {
        fill: #ffe373;
      }

      .cls-3 {
        fill: none;
      }

      .cls-3, .cls-4 {
        stroke: #272838;
        stroke-width: .58px;
      }

      .cls-5 {
        fill: #fcb033;
      }
    </style>
  </defs>
  <path class="cls-2" d="m20.52.96s11.31,3.03,11.54,15.34c0,0,.76,7.46-8.72,9.8,0,0-7.4.87-7.07-7.12,0,0,1.14-2.44,2.88-2.6s5.64-.63,6.78-4.79c1.14-4.15-1.84-8.11-5.4-10.62Z"/>
  <path class="cls-5" d="m31.43,20.54s-3.02,11.35-15.28,11.58c0,0-7.43.76-9.76-8.76,0,0-.86-7.43,7.09-7.1,0,0,2.43,1.14,2.59,2.89s.63,5.66,4.77,6.81c4.14,1.14,8.08-1.85,10.58-5.42Z"/>
  <path class="cls-1" d="m11.52,31.52S2.07,29.6.29,17.35,13.19-.54,16.67.3s7.1,1.56,9.16,8.01-5.63,7.94-5.63,7.94c0,0-2.24-.5-4.01,2.57,0,0-1.79-4.47-7.33-1.49,0,0-3.88,2.3-1.97,8.23,0,0,1.45,2.93,4.62,5.95Z"/>
  <path class="cls-3" d="m16.19.3c5.42,0,9.82,4.41,9.82,9.86"/>
  <path class="cls-3" d="m26.01,10.16c0,3.37-2.72,6.1-6.07,6.1"/>
  <path class="cls-3" d="m32.09,16.26c0,5.45-4.4,9.86-9.82,9.86"/>
  <path class="cls-3" d="m22.26,26.12c-3.35,0-6.07-2.73-6.07-6.1"/>
  <path class="cls-3" d="m16.19,20.03c0-2.08,1.68-3.77,3.76-3.77"/>
  <path class="cls-3" d="m32.08,16.25c0,5.45-4.4,9.86-9.82,9.86"/>
  <path class="cls-3" d="m22.26,26.12c-3.35,0-6.07-2.73-6.07-6.1"/>
  <path class="cls-3" d="m16.19,32.21c-5.42,0-9.82-4.41-9.82-9.86"/>
  <path class="cls-3" d="m6.36,22.35c0-3.37,2.72-6.1,6.07-6.1"/>
  <path class="cls-3" d="m12.43,16.25c2.07,0,3.76,1.69,3.76,3.77"/>
  <path class="cls-3" d="m16.19,32.21c-5.42,0-9.82-4.41-9.82-9.86"/>
  <path class="cls-3" d="m6.36,22.35c0-3.37,2.72-6.1,6.07-6.1"/>
  <path class="cls-3" d="m12.43,16.25c2.07,0,3.76,1.69,3.76,3.77"/>
  <path class="cls-3" d="m16.19,32.21c8.81,0,15.96-7.11,15.96-15.96,0-8.85-7.07-15.96-15.88-15.96"/>
  <ellipse class="cls-4" cx="17.1" cy="10.16" rx="2.86" ry="2.87"/>
  <ellipse class="cls-3" cx="16.19" cy="16.25" rx="15.9" ry="15.96"/>
</svg>