<?xml version="1.0" encoding="UTF-8"?>
<svg id="Coloured" xmlns="http://www.w3.org/2000/svg" viewBox="0 0 16.28 16.25">
  <defs>
    <style>
      .cls-1 {
        fill: #ee5e6c;
      }

      .cls-1, .cls-2, .cls-3 {
        stroke: #414042;
        stroke-width: .03px;
      }

      .cls-1, .cls-2, .cls-3, .cls-4, .cls-5 {
        stroke-miterlimit: 10;
      }

      .cls-2, .cls-4 {
        fill: #ffe373;
      }

      .cls-3 {
        fill: #fcb033;
      }

      .cls-4, .cls-5 {
        stroke: #272838;
        stroke-width: .29px;
      }

      .cls-5 {
        fill: none;
      }
    </style>
  </defs>
  <path class="cls-2" d="m10.3.48s5.68,1.52,5.79,7.67c0,0,.38,3.73-4.38,4.9,0,0-3.72.43-3.55-3.56,0,0,.57-1.22,1.44-1.3s2.83-.32,3.4-2.39-.92-4.05-2.71-5.31Z"/>
  <path class="cls-3" d="m15.78,10.27s-1.52,5.68-7.67,5.79c0,0-3.73.38-4.9-4.38,0,0-.43-3.72,3.56-3.55,0,0,1.22.57,1.3,1.44s.32,2.83,2.39,3.4,4.05-.92,5.31-2.71Z"/>
  <path class="cls-1" d="m5.78,15.76S1.04,14.8.15,8.68,6.62-.27,8.37.15s3.57.78,4.6,4-2.83,3.97-2.83,3.97c0,0-1.13-.25-2.01,1.29,0,0-.9-2.24-3.68-.74,0,0-1.95,1.15-.99,4.12,0,0,.73,1.47,2.32,2.97Z"/>
  <path class="cls-5" d="m8.12.15c2.72,0,4.93,2.21,4.93,4.93"/>
  <path class="cls-5" d="m13.06,5.08c0,1.68-1.36,3.05-3.05,3.05"/>
  <path class="cls-5" d="m16.11,8.13c0,2.72-2.21,4.93-4.93,4.93"/>
  <path class="cls-5" d="m11.18,13.06c-1.68,0-3.05-1.36-3.05-3.05"/>
  <path class="cls-5" d="m8.13,10.01c0-1.04.84-1.89,1.89-1.89"/>
  <path class="cls-5" d="m16.1,8.13c0,2.72-2.21,4.93-4.93,4.93"/>
  <path class="cls-5" d="m11.17,13.06c-1.68,0-3.05-1.36-3.05-3.05"/>
  <path class="cls-5" d="m8.12,16.11c-2.72,0-4.93-2.21-4.93-4.93"/>
  <path class="cls-5" d="m3.19,11.18c0-1.68,1.36-3.05,3.05-3.05"/>
  <path class="cls-5" d="m6.24,8.13c1.04,0,1.89.84,1.89,1.89"/>
  <path class="cls-5" d="m8.12,16.11c-2.72,0-4.93-2.21-4.93-4.93"/>
  <path class="cls-5" d="m3.19,11.18c0-1.68,1.36-3.05,3.05-3.05"/>
  <path class="cls-5" d="m6.24,8.13c1.04,0,1.89.84,1.89,1.89"/>
  <path class="cls-5" d="m8.12,16.11c4.42,0,8.01-3.56,8.01-7.98S12.58.15,8.16.15"/>
  <circle class="cls-4" cx="8.58" cy="5.08" r="1.44"/>
  <circle class="cls-5" cx="8.13" cy="8.13" r="7.98"/>
</svg>