<?xml version="1.0" encoding="UTF-8"?>
<svg id="Coloured" xmlns="http://www.w3.org/2000/svg" viewBox="0 0 64.87 65.02">
  <defs>
    <style>
      .cls-1 {
        fill: #ee5e6c;
      }

      .cls-1, .cls-2, .cls-3, .cls-4, .cls-5 {
        stroke-miterlimit: 10;
      }

      .cls-1, .cls-4, .cls-5 {
        stroke: #414042;
        stroke-width: .12px;
      }

      .cls-2 {
        fill: none;
      }

      .cls-2, .cls-3 {
        stroke: #272838;
        stroke-width: 1.17px;
      }

      .cls-3, .cls-5 {
        fill: #ffe373;
      }

      .cls-4 {
        fill: #fcb033;
      }
    </style>
  </defs>
  <path class="cls-5" d="m41.04,1.92s22.61,6.07,23.08,30.68c0,0,1.52,14.93-17.45,19.59,0,0-14.8,1.74-14.14-14.24,0,0,2.28-4.89,5.75-5.21,3.47-.32,11.28-1.27,13.56-9.58,2.27-8.31-3.68-16.22-10.81-21.25Z"/>
  <path class="cls-4" d="m62.86,41.08s-6.05,22.7-30.56,23.17c0,0-14.87,1.52-19.51-17.51,0,0-1.73-14.86,14.18-14.19,0,0,4.87,2.29,5.19,5.78.32,3.49,1.26,11.33,9.54,13.61,8.28,2.28,16.15-3.69,21.17-10.85Z"/>
  <path class="cls-1" d="m23.04,63.04S4.15,59.2.58,34.71C-2.98,10.22,26.38-1.08,33.35.6c6.96,1.68,14.21,3.12,18.32,16.01s-11.27,15.89-11.27,15.89c0,0-4.49-.99-8.01,5.14,0,0-3.57-8.95-14.65-2.97,0,0-7.77,4.6-3.94,16.47,0,0,2.9,5.86,9.25,11.9Z"/>
  <path class="cls-2" d="m32.37.6c10.85,0,19.64,8.83,19.64,19.72"/>
  <path class="cls-2" d="m52.03,20.32c0,6.73-5.44,12.19-12.14,12.19"/>
  <path class="cls-2" d="m64.17,32.52c0,10.89-8.79,19.72-19.64,19.72"/>
  <path class="cls-2" d="m44.53,52.25c-6.71,0-12.14-5.46-12.14-12.19"/>
  <path class="cls-2" d="m32.38,40.06c0-4.17,3.36-7.54,7.51-7.54"/>
  <path class="cls-2" d="m64.17,32.5c0,10.89-8.79,19.72-19.64,19.72"/>
  <path class="cls-2" d="m44.52,52.24c-6.71,0-12.14-5.46-12.14-12.19"/>
  <path class="cls-2" d="m32.37,64.43c-10.85,0-19.64-8.83-19.64-19.72"/>
  <path class="cls-2" d="m12.71,44.71c0-6.73,5.44-12.19,12.14-12.19"/>
  <path class="cls-2" d="m24.86,32.51c4.15,0,7.51,3.38,7.51,7.54"/>
  <path class="cls-2" d="m32.37,64.43c-10.85,0-19.64-8.83-19.64-19.72"/>
  <path class="cls-2" d="m12.71,44.71c0-6.73,5.44-12.19,12.14-12.19"/>
  <path class="cls-2" d="m24.86,32.51c4.15,0,7.51,3.38,7.51,7.54"/>
  <path class="cls-2" d="m32.37,64.43c17.62,0,31.91-14.23,31.91-31.92,0-17.69-14.15-31.91-31.77-31.91"/>
  <ellipse class="cls-3" cx="34.2" cy="20.32" rx="5.72" ry="5.74"/>
  <ellipse class="cls-2" cx="32.38" cy="32.51" rx="31.8" ry="31.93"/>
</svg>