<?xml version="1.0" encoding="utf-8"?>
<!-- Generator: Adobe Illustrator 27.2.0, SVG Export Plug-In . SVG Version: 6.00 Build 0)  -->
<svg version="1.1" xmlns="http://www.w3.org/2000/svg" xmlns:xlink="http://www.w3.org/1999/xlink" x="0px" y="0px"
	 viewBox="0 0 147.43 148.57" style="enable-background:new 0 0 147.43 148.57;" xml:space="preserve">
<style type="text/css">
	.st0{display:none;}
	.st1{display:inline;fill:#272838;}
	.st2{fill:#FFE373;stroke:#414042;stroke-width:0.2576;stroke-miterlimit:10;}
	.st3{fill:#FCB033;stroke:#414042;stroke-width:0.2576;stroke-miterlimit:10;}
	.st4{fill:#EE5E6C;stroke:#414042;stroke-width:0.2576;stroke-miterlimit:10;}
	.st5{fill:none;stroke:#272838;stroke-width:2.5762;stroke-miterlimit:10;}
	.st6{fill:#FFE373;stroke:#272838;stroke-width:2.5762;stroke-miterlimit:10;}
</style>
<g id="Black_and_White_v2">
	<g>
		<g class="st0">
			<path class="st1" d="M-24.73,175.43h7.67c0.4,0,0.73,0.13,1,0.38c0.27,0.25,0.4,0.58,0.4,0.97c0,0.38-0.13,0.69-0.4,0.93
				c-0.27,0.24-0.6,0.36-1,0.36h-6.41l0.21-0.39v4.46l-0.18-0.18h5.36c0.4,0,0.73,0.13,1,0.38s0.4,0.58,0.4,0.97
				c0,0.38-0.13,0.69-0.4,0.93c-0.27,0.24-0.6,0.35-1,0.35h-5.29l0.11-0.18v4.62l-0.18-0.21h6.39c0.4,0,0.73,0.13,1,0.4
				c0.27,0.27,0.4,0.58,0.4,0.93c0,0.38-0.13,0.69-0.4,0.94s-0.6,0.37-1,0.37h-7.67c-0.4,0-0.73-0.13-1-0.4
				c-0.27-0.27-0.4-0.6-0.4-1v-13.23c0-0.4,0.13-0.73,0.4-1S-25.13,175.43-24.73,175.43z"/>
			<path class="st1" d="M-2.44,175.41c0.21,0,0.44,0.06,0.68,0.17c0.24,0.11,0.42,0.26,0.54,0.45l5.56,8.56l-1.14-0.05l5.7-8.52
				c0.29-0.41,0.66-0.62,1.12-0.62c0.37,0,0.69,0.13,0.98,0.39c0.29,0.26,0.44,0.59,0.44,1.01v13.26c0,0.4-0.13,0.73-0.39,1
				c-0.26,0.27-0.6,0.4-1.03,0.4c-0.43,0-0.77-0.13-1.04-0.4c-0.27-0.27-0.4-0.6-0.4-1v-10.78l0.89,0.21l-4.67,7.12
				c-0.14,0.17-0.31,0.31-0.52,0.43c-0.21,0.12-0.42,0.18-0.63,0.16c-0.2,0.01-0.4-0.04-0.61-0.16c-0.21-0.12-0.38-0.27-0.52-0.43
				l-4.37-6.91l0.6-1.21v11.58c0,0.4-0.12,0.73-0.37,1c-0.24,0.27-0.56,0.4-0.96,0.4c-0.38,0-0.69-0.13-0.94-0.4
				c-0.24-0.27-0.37-0.6-0.37-1v-13.26c0-0.38,0.14-0.71,0.42-0.98C-3.17,175.55-2.83,175.41-2.44,175.41z"/>
			<path class="st1" d="M26.89,190.06c0,0.4-0.15,0.73-0.43,1c-0.29,0.27-0.63,0.4-1.01,0.4c-0.43,0-0.77-0.13-1.03-0.4
				c-0.26-0.27-0.39-0.6-0.39-1v-13.23c0-0.4,0.14-0.73,0.41-1c0.27-0.27,0.63-0.4,1.05-0.4c0.37,0,0.69,0.13,0.97,0.4
				c0.28,0.27,0.42,0.6,0.42,1V190.06z"/>
			<path class="st1" d="M48.32,188.78c0.4,0,0.73,0.13,1,0.38s0.4,0.58,0.4,0.97c0,0.38-0.13,0.7-0.4,0.95s-0.6,0.38-1,0.38h-7.44
				c-0.4,0-0.73-0.13-1-0.4c-0.27-0.27-0.4-0.6-0.4-1v-13.23c0-0.4,0.14-0.73,0.41-1c0.27-0.27,0.63-0.4,1.05-0.4
				c0.37,0,0.69,0.13,0.97,0.4c0.28,0.27,0.42,0.6,0.42,1v12.34l-0.5-0.39H48.32z"/>
			<path class="st1" d="M71.72,175.36c0.35,0,0.67,0.13,0.95,0.4c0.28,0.27,0.42,0.61,0.42,1.02c0,0.14-0.02,0.28-0.06,0.42
				c-0.04,0.15-0.1,0.29-0.19,0.42l-5.2,7.44l0.41-1.58v6.57c0,0.4-0.13,0.73-0.4,1c-0.27,0.27-0.58,0.4-0.93,0.4
				c-0.38,0-0.71-0.13-0.97-0.4c-0.27-0.27-0.4-0.6-0.4-1v-6.39l0.18,0.73l-4.95-6.57c-0.15-0.2-0.26-0.39-0.32-0.57
				c-0.06-0.18-0.09-0.35-0.09-0.5c0-0.41,0.16-0.75,0.48-1.01c0.32-0.26,0.65-0.39,0.98-0.39c0.43,0,0.8,0.21,1.12,0.64l4.4,6.07
				l-0.64-0.09l4.05-5.93C70.89,175.59,71.27,175.36,71.72,175.36z"/>
			<path class="st1" d="M107.04,175.43c1.47,0,2.56,0.34,3.27,1.03c0.72,0.69,1.08,1.7,1.08,3.04c0,0.72-0.18,1.35-0.53,1.89
				c-0.35,0.54-0.87,0.96-1.56,1.26s-1.53,0.45-2.54,0.45l0.09-1.03c0.47,0,1.01,0.07,1.62,0.19c0.61,0.13,1.2,0.36,1.77,0.69
				s1.04,0.79,1.42,1.37c0.37,0.59,0.56,1.34,0.56,2.26c0,1.01-0.16,1.83-0.49,2.47c-0.33,0.64-0.76,1.14-1.29,1.49
				c-0.53,0.35-1.11,0.59-1.72,0.72s-1.2,0.19-1.76,0.19h-5.7c-0.4,0-0.73-0.13-1-0.4c-0.27-0.27-0.4-0.6-0.4-1v-13.23
				c0-0.4,0.13-0.73,0.4-1c0.27-0.27,0.6-0.4,1-0.4H107.04z M106.63,178.13h-4.08l0.3-0.37v4.14l-0.27-0.21h4.12
				c0.44,0,0.84-0.14,1.19-0.43c0.35-0.29,0.53-0.71,0.53-1.26c0-0.66-0.16-1.13-0.49-1.43S107.16,178.13,106.63,178.13z
				 M106.81,184.41h-4.17l0.21-0.18v4.83l-0.23-0.23h4.35c0.7,0,1.26-0.19,1.67-0.56s0.62-0.94,0.62-1.68
				c0-0.69-0.14-1.18-0.41-1.49c-0.27-0.31-0.6-0.5-0.98-0.57S107.13,184.41,106.81,184.41z"/>
			<path class="st1" d="M138.77,183.45c0,1.14-0.19,2.21-0.57,3.21c-0.38,0.99-0.92,1.87-1.61,2.62c-0.69,0.76-1.52,1.35-2.47,1.77
				s-2,0.64-3.12,0.64c-1.13,0-2.17-0.21-3.11-0.64s-1.77-1.02-2.46-1.77c-0.7-0.75-1.23-1.63-1.61-2.62s-0.57-2.06-0.57-3.21
				s0.19-2.21,0.57-3.21s0.92-1.87,1.61-2.62c0.69-0.75,1.51-1.35,2.46-1.77c0.95-0.43,1.98-0.64,3.11-0.64
				c1.13,0,2.17,0.21,3.12,0.64c0.95,0.43,1.78,1.02,2.47,1.77c0.69,0.76,1.23,1.63,1.61,2.62
				C138.58,181.23,138.77,182.3,138.77,183.45z M135.8,183.45c0-1.02-0.21-1.95-0.62-2.78c-0.41-0.83-0.98-1.49-1.69-1.98
				c-0.72-0.49-1.55-0.73-2.5-0.73s-1.78,0.25-2.5,0.73c-0.72,0.49-1.28,1.14-1.68,1.97s-0.61,1.75-0.61,2.79
				c0,1.02,0.2,1.95,0.61,2.78c0.4,0.83,0.96,1.49,1.68,1.98c0.72,0.49,1.55,0.73,2.5,0.73s1.78-0.24,2.5-0.73
				c0.72-0.49,1.28-1.15,1.69-1.98C135.59,185.4,135.8,184.47,135.8,183.45z"/>
			<path class="st1" d="M160.77,175.36c0.35,0,0.67,0.13,0.95,0.4c0.28,0.27,0.42,0.61,0.42,1.02c0,0.14-0.02,0.28-0.06,0.42
				c-0.04,0.15-0.1,0.29-0.2,0.42l-5.2,7.44l0.41-1.58v6.57c0,0.4-0.13,0.73-0.4,1c-0.27,0.27-0.58,0.4-0.93,0.4
				c-0.38,0-0.71-0.13-0.97-0.4c-0.27-0.27-0.4-0.6-0.4-1v-6.39l0.18,0.73l-4.95-6.57c-0.15-0.2-0.26-0.39-0.32-0.57
				c-0.06-0.18-0.09-0.35-0.09-0.5c0-0.41,0.16-0.75,0.48-1.01c0.32-0.26,0.65-0.39,0.98-0.39c0.43,0,0.8,0.21,1.12,0.64l4.4,6.07
				l-0.64-0.09l4.05-5.93C159.95,175.59,160.33,175.36,160.77,175.36z"/>
			<path class="st1" d="M180.23,175.43c1.1,0,2.08,0.21,2.93,0.62s1.58,0.99,2.16,1.73c0.59,0.74,1.03,1.59,1.33,2.56
				c0.3,0.97,0.45,2,0.45,3.1c0,1.48-0.27,2.83-0.8,4.04c-0.53,1.21-1.31,2.18-2.32,2.9c-1.02,0.72-2.26,1.08-3.74,1.08h-5.47
				c-0.4,0-0.73-0.13-1-0.4c-0.27-0.27-0.4-0.6-0.4-1v-13.23c0-0.4,0.13-0.73,0.4-1c0.27-0.27,0.6-0.4,1-0.4H180.23z M180,188.83
				c0.96,0,1.75-0.25,2.36-0.74c0.61-0.5,1.06-1.15,1.34-1.97s0.42-1.71,0.42-2.67c0-0.72-0.08-1.4-0.24-2.05s-0.41-1.22-0.74-1.72
				c-0.34-0.5-0.76-0.89-1.28-1.18s-1.14-0.43-1.85-0.43H176l0.23-0.21v11.22l-0.14-0.25H180z"/>
		</g>
	</g>
	<g>
		<g class="st0">
			<path class="st1" d="M-29.64,203.98h0.9l1.91,4.64l1.91-4.64h0.9l-2.25,5.38l2.68,6.22l4.89-11.69h1.01l-5.47,12.77h-0.85
				l-2.81-6.57l-2.82,6.57h-0.85l-5.45-12.77h0.99l4.91,11.69l2.64-6.22L-29.64,203.98z"/>
			<path class="st1" d="M-12.07,216.84c-0.66,0-1.27-0.13-1.83-0.38c-0.56-0.26-1.05-0.61-1.47-1.06s-0.74-0.97-0.97-1.56
				c-0.23-0.59-0.35-1.22-0.35-1.87c0-0.88,0.2-1.68,0.59-2.4s0.94-1.29,1.64-1.73c0.7-0.44,1.48-0.65,2.34-0.65
				c0.89,0,1.67,0.22,2.36,0.66c0.68,0.44,1.23,1.03,1.63,1.75c0.4,0.72,0.6,1.51,0.6,2.38c0,0.07,0,0.14,0,0.21
				c0,0.07-0.01,0.13-0.02,0.18h-8.2c0.05,0.7,0.25,1.34,0.59,1.92c0.35,0.57,0.79,1.02,1.34,1.35c0.55,0.33,1.14,0.49,1.79,0.49
				s1.26-0.17,1.83-0.5c0.58-0.34,0.98-0.77,1.21-1.3l0.79,0.22c-0.18,0.44-0.46,0.84-0.85,1.19c-0.39,0.35-0.85,0.62-1.37,0.82
				C-10.95,216.74-11.49,216.84-12.07,216.84z M-15.79,211.66h7.39c-0.05-0.73-0.24-1.37-0.58-1.93c-0.34-0.56-0.78-1-1.32-1.32
				c-0.55-0.32-1.15-0.48-1.81-0.48s-1.26,0.16-1.8,0.48c-0.54,0.32-0.98,0.76-1.31,1.32C-15.55,210.29-15.75,210.93-15.79,211.66z"
				/>
			<path class="st1" d="M-1.19,216.84c-0.73,0-1.42-0.19-2.05-0.58c-0.64-0.39-1.13-0.88-1.49-1.47v1.87h-0.83v-13.13h0.9v5.85
				c0.44-0.65,0.97-1.17,1.57-1.58c0.61-0.41,1.3-0.61,2.1-0.61c0.67,0,1.27,0.14,1.79,0.41c0.52,0.27,0.97,0.64,1.34,1.11
				c0.37,0.47,0.66,0.99,0.85,1.56c0.2,0.57,0.3,1.17,0.3,1.77c0,0.63-0.11,1.24-0.34,1.82c-0.23,0.58-0.55,1.09-0.95,1.54
				s-0.88,0.8-1.42,1.06S-0.55,216.84-1.19,216.84z M-1.37,216.03c0.55,0,1.06-0.11,1.51-0.33c0.46-0.22,0.85-0.52,1.18-0.9
				c0.33-0.38,0.59-0.81,0.77-1.29c0.19-0.48,0.28-0.97,0.28-1.47c0-0.7-0.15-1.36-0.45-1.98c-0.3-0.62-0.72-1.11-1.26-1.5
				c-0.54-0.38-1.16-0.57-1.87-0.57c-0.53,0-1.01,0.12-1.46,0.35c-0.44,0.23-0.83,0.54-1.16,0.9c-0.33,0.37-0.61,0.78-0.84,1.22
				v3.08c0.05,0.35,0.18,0.67,0.4,0.98s0.49,0.57,0.82,0.79c0.33,0.22,0.68,0.4,1.04,0.53C-2.04,215.96-1.69,216.03-1.37,216.03z"/>
			<path class="st1" d="M10.34,216.66v-12.77h4.25c1.35,0,2.48,0.29,3.37,0.85c0.89,0.57,1.56,1.34,2.01,2.3
				c0.45,0.96,0.67,2.04,0.67,3.21c0,1.29-0.25,2.42-0.74,3.38c-0.49,0.96-1.19,1.7-2.1,2.23c-0.91,0.53-1.98,0.79-3.22,0.79H10.34z
				 M19.73,210.26c0-1.07-0.2-2.02-0.6-2.86c-0.4-0.84-0.98-1.5-1.74-1.97c-0.76-0.47-1.69-0.71-2.8-0.71h-3.33v11.12h3.33
				c1.12,0,2.06-0.25,2.82-0.74c0.77-0.49,1.35-1.16,1.74-2C19.54,212.24,19.73,211.3,19.73,210.26z"/>
			<path class="st1" d="M26.87,216.84c-0.66,0-1.27-0.13-1.83-0.38c-0.56-0.26-1.05-0.61-1.47-1.06s-0.74-0.97-0.97-1.56
				c-0.23-0.59-0.35-1.22-0.35-1.87c0-0.88,0.2-1.68,0.59-2.4s0.94-1.29,1.64-1.73c0.7-0.44,1.48-0.65,2.34-0.65
				c0.89,0,1.67,0.22,2.36,0.66c0.68,0.44,1.23,1.03,1.63,1.75c0.4,0.72,0.6,1.51,0.6,2.38c0,0.07,0,0.14,0,0.21
				c0,0.07-0.01,0.13-0.02,0.18h-8.2c0.05,0.7,0.25,1.34,0.59,1.92c0.35,0.57,0.79,1.02,1.34,1.35c0.55,0.33,1.14,0.49,1.79,0.49
				s1.26-0.17,1.83-0.5c0.58-0.34,0.98-0.77,1.21-1.3l0.79,0.22c-0.18,0.44-0.46,0.84-0.85,1.19c-0.39,0.35-0.85,0.62-1.37,0.82
				C28,216.74,27.45,216.84,26.87,216.84z M23.15,211.66h7.39c-0.05-0.73-0.24-1.37-0.58-1.93c-0.34-0.56-0.78-1-1.32-1.32
				c-0.55-0.32-1.15-0.48-1.81-0.48s-1.26,0.16-1.8,0.48c-0.54,0.32-0.98,0.76-1.31,1.32C23.39,210.29,23.2,210.93,23.15,211.66z"/>
			<path class="st1" d="M36.34,216.84c-0.74,0-1.43-0.13-2.07-0.38c-0.64-0.25-1.19-0.63-1.67-1.15l0.41-0.63
				c0.52,0.49,1.04,0.85,1.56,1.07c0.53,0.22,1.1,0.33,1.73,0.33c0.8,0,1.45-0.17,1.95-0.5c0.5-0.33,0.75-0.8,0.75-1.4
				c0-0.41-0.12-0.72-0.35-0.94s-0.57-0.4-1.01-0.54c-0.44-0.14-0.97-0.28-1.59-0.44c-0.64-0.17-1.17-0.34-1.61-0.52
				c-0.44-0.18-0.76-0.41-0.98-0.7c-0.22-0.29-0.32-0.68-0.32-1.17c0-0.61,0.15-1.11,0.46-1.51s0.72-0.7,1.24-0.9s1.1-0.3,1.74-0.3
				c0.73,0,1.37,0.12,1.92,0.36c0.55,0.24,0.96,0.56,1.25,0.95l-0.49,0.58c-0.3-0.38-0.69-0.67-1.17-0.85
				c-0.48-0.19-1.01-0.28-1.58-0.28c-0.43,0-0.84,0.06-1.22,0.18c-0.38,0.12-0.69,0.31-0.93,0.58S34,209.33,34,209.78
				c0,0.36,0.09,0.64,0.26,0.84c0.17,0.2,0.43,0.37,0.78,0.49c0.35,0.12,0.78,0.26,1.29,0.4c0.73,0.18,1.36,0.37,1.89,0.56
				c0.53,0.19,0.94,0.44,1.22,0.74c0.29,0.3,0.43,0.73,0.43,1.28c0,0.85-0.32,1.52-0.97,2.01C38.26,216.6,37.4,216.84,36.34,216.84z
				"/>
			<path class="st1" d="M42,205.18v-1.65h0.9v1.65H42z M42,216.66v-9.35h0.9v9.35H42z"/>
			<path class="st1" d="M49.5,216.84c-0.64,0-1.23-0.13-1.77-0.4c-0.55-0.26-1.01-0.63-1.4-1.09c-0.39-0.46-0.7-0.98-0.92-1.55
				c-0.22-0.57-0.33-1.16-0.33-1.77c0-0.64,0.1-1.25,0.31-1.83c0.21-0.59,0.51-1.11,0.9-1.56c0.39-0.45,0.85-0.81,1.38-1.07
				s1.12-0.4,1.76-0.4c0.82,0,1.53,0.21,2.13,0.63c0.61,0.42,1.12,0.94,1.54,1.55v-2.03h0.83v9.52c0,0.84-0.2,1.54-0.61,2.12
				c-0.41,0.58-0.95,1-1.62,1.28s-1.4,0.42-2.18,0.42c-1.09,0-1.96-0.2-2.6-0.59s-1.16-0.92-1.56-1.57l0.61-0.41
				c0.37,0.62,0.88,1.08,1.51,1.38c0.64,0.3,1.31,0.45,2.03,0.45c0.64,0,1.22-0.12,1.75-0.35c0.53-0.23,0.96-0.58,1.28-1.03
				c0.32-0.46,0.48-1.02,0.48-1.68v-2.05c-0.37,0.61-0.88,1.1-1.52,1.47C50.87,216.66,50.2,216.84,49.5,216.84z M49.72,216.07
				c0.4,0,0.78-0.07,1.15-0.22c0.37-0.14,0.71-0.34,1.02-0.58c0.31-0.25,0.57-0.52,0.77-0.82c0.2-0.3,0.32-0.6,0.36-0.9v-3.08
				c-0.18-0.48-0.45-0.91-0.82-1.29c-0.37-0.38-0.78-0.67-1.23-0.88c-0.46-0.21-0.92-0.31-1.4-0.31c-0.56,0-1.07,0.12-1.51,0.36
				c-0.44,0.24-0.82,0.55-1.12,0.94s-0.54,0.83-0.7,1.31c-0.16,0.49-0.24,0.97-0.24,1.45c0,0.54,0.1,1.05,0.29,1.53
				c0.19,0.48,0.46,0.91,0.8,1.29s0.74,0.67,1.19,0.88S49.2,216.07,49.72,216.07z"/>
			<path class="st1" d="M64.38,216.66h-0.9v-5.2c0-1.19-0.17-2.07-0.51-2.62s-0.88-0.83-1.63-0.83c-0.53,0-1.05,0.12-1.56,0.38
				c-0.51,0.25-0.95,0.59-1.33,1.03c-0.38,0.44-0.65,0.93-0.82,1.48v5.77h-0.9v-9.34h0.85v2.24c0.25-0.48,0.59-0.89,1.01-1.25
				c0.42-0.35,0.89-0.63,1.4-0.83s1.05-0.3,1.6-0.3c0.52,0,0.95,0.09,1.3,0.28c0.35,0.19,0.64,0.45,0.86,0.8
				c0.22,0.35,0.38,0.78,0.48,1.29c0.1,0.51,0.14,1.1,0.14,1.76V216.66z"/>
			<path class="st1" d="M80.77,216.66l-6.48-6.8c-0.52-0.54-0.93-1.01-1.24-1.4c-0.31-0.38-0.53-0.73-0.67-1.05
				c-0.13-0.31-0.2-0.62-0.2-0.92c0-0.5,0.14-0.95,0.41-1.36c0.28-0.41,0.65-0.74,1.12-0.98c0.47-0.24,1-0.36,1.59-0.36
				c0.55,0,1.04,0.1,1.48,0.31c0.43,0.21,0.77,0.49,1.02,0.85c0.25,0.36,0.37,0.78,0.37,1.25c0,0.51-0.15,0.97-0.46,1.39
				c-0.31,0.42-0.71,0.81-1.21,1.18s-1.03,0.73-1.59,1.1c-0.5,0.34-0.97,0.69-1.41,1.04c-0.44,0.35-0.79,0.72-1.04,1.13
				s-0.39,0.86-0.39,1.38c0,0.57,0.16,1.04,0.49,1.42c0.32,0.38,0.73,0.67,1.23,0.86c0.5,0.2,1,0.29,1.52,0.29
				c0.68,0,1.31-0.15,1.87-0.46c0.56-0.31,1.05-0.73,1.47-1.26s0.73-1.14,0.95-1.83c0.22-0.68,0.33-1.4,0.33-2.16h0.79
				c0,0.86-0.13,1.68-0.4,2.45c-0.27,0.77-0.65,1.45-1.14,2.05s-1.07,1.07-1.74,1.42c-0.67,0.35-1.42,0.52-2.23,0.52
				c-0.71,0-1.37-0.14-1.98-0.41s-1.1-0.66-1.48-1.16c-0.37-0.5-0.56-1.09-0.56-1.78c0-0.63,0.15-1.18,0.45-1.65s0.7-0.9,1.19-1.29
				c0.49-0.38,1.01-0.76,1.56-1.13c0.59-0.38,1.1-0.73,1.55-1.06c0.44-0.32,0.79-0.65,1.03-0.97c0.25-0.33,0.37-0.68,0.37-1.06
				c0-0.5-0.19-0.91-0.58-1.23c-0.39-0.32-0.88-0.49-1.47-0.49c-0.43,0-0.82,0.09-1.16,0.27c-0.34,0.18-0.61,0.41-0.81,0.71
				c-0.2,0.3-0.3,0.62-0.3,0.97c0,0.2,0.05,0.42,0.14,0.65c0.1,0.23,0.28,0.52,0.56,0.87c0.28,0.35,0.68,0.79,1.21,1.34l7.03,7.32
				H80.77z"/>
			<path class="st1" d="M88.39,216.66v-12.77h4.25c1.35,0,2.48,0.29,3.37,0.85c0.89,0.57,1.56,1.34,2.01,2.3
				c0.45,0.96,0.67,2.04,0.67,3.21c0,1.29-0.25,2.42-0.74,3.38c-0.49,0.96-1.19,1.7-2.1,2.23c-0.91,0.53-1.98,0.79-3.22,0.79H88.39z
				 M97.78,210.26c0-1.07-0.2-2.02-0.6-2.86c-0.4-0.84-0.98-1.5-1.75-1.97s-1.69-0.71-2.8-0.71h-3.33v11.12h3.33
				c1.12,0,2.06-0.25,2.82-0.74c0.77-0.49,1.35-1.16,1.74-2C97.59,212.24,97.78,211.3,97.78,210.26z"/>
			<path class="st1" d="M104.92,216.84c-0.66,0-1.27-0.13-1.83-0.38c-0.56-0.26-1.05-0.61-1.47-1.06c-0.41-0.45-0.74-0.97-0.97-1.56
				c-0.23-0.59-0.35-1.22-0.35-1.87c0-0.88,0.2-1.68,0.59-2.4s0.94-1.29,1.64-1.73c0.7-0.44,1.48-0.65,2.34-0.65
				c0.89,0,1.67,0.22,2.36,0.66s1.23,1.03,1.63,1.75c0.4,0.72,0.6,1.51,0.6,2.38c0,0.07,0,0.14,0,0.21c0,0.07-0.01,0.13-0.02,0.18
				h-8.2c0.05,0.7,0.25,1.34,0.59,1.92c0.35,0.57,0.79,1.02,1.34,1.35c0.55,0.33,1.14,0.49,1.79,0.49s1.26-0.17,1.83-0.5
				s0.98-0.77,1.21-1.3l0.79,0.22c-0.18,0.44-0.46,0.84-0.85,1.19c-0.39,0.35-0.85,0.62-1.37,0.82
				C106.05,216.74,105.5,216.84,104.92,216.84z M101.2,211.66h7.39c-0.05-0.73-0.24-1.37-0.58-1.93c-0.33-0.56-0.78-1-1.32-1.32
				c-0.55-0.32-1.15-0.48-1.81-0.48c-0.66,0-1.26,0.16-1.8,0.48c-0.54,0.32-0.98,0.76-1.31,1.32
				C101.44,210.29,101.25,210.93,101.2,211.66z"/>
			<path class="st1" d="M114.31,216.66l-3.9-9.34h0.95l3.44,8.38l3.45-8.38h0.9l-3.9,9.34H114.31z"/>
			<path class="st1" d="M124.91,216.84c-0.66,0-1.27-0.13-1.83-0.38s-1.05-0.61-1.47-1.06c-0.41-0.45-0.74-0.97-0.97-1.56
				c-0.23-0.59-0.35-1.22-0.35-1.87c0-0.88,0.2-1.68,0.59-2.4s0.94-1.29,1.64-1.73c0.7-0.44,1.47-0.65,2.34-0.65
				c0.89,0,1.67,0.22,2.36,0.66c0.68,0.44,1.23,1.03,1.63,1.75c0.4,0.72,0.6,1.51,0.6,2.38c0,0.07,0,0.14,0,0.21
				c0,0.07-0.01,0.13-0.02,0.18h-8.2c0.05,0.7,0.25,1.34,0.59,1.92c0.35,0.57,0.79,1.02,1.34,1.35c0.54,0.33,1.14,0.49,1.79,0.49
				s1.26-0.17,1.83-0.5c0.58-0.34,0.98-0.77,1.21-1.3l0.79,0.22c-0.18,0.44-0.46,0.84-0.85,1.19s-0.85,0.62-1.37,0.82
				C126.03,216.74,125.48,216.84,124.91,216.84z M121.18,211.66h7.39c-0.05-0.73-0.24-1.37-0.58-1.93c-0.34-0.56-0.78-1-1.32-1.32
				s-1.15-0.48-1.81-0.48c-0.66,0-1.26,0.16-1.8,0.48s-0.98,0.76-1.31,1.32C121.42,210.29,121.23,210.93,121.18,211.66z"/>
			<path class="st1" d="M131.49,203.53h0.92v11.34c0,0.43,0.09,0.73,0.27,0.9s0.41,0.24,0.7,0.24c0.19,0,0.39-0.02,0.59-0.05
				c0.2-0.04,0.38-0.08,0.54-0.14l0.18,0.74c-0.2,0.07-0.46,0.14-0.76,0.2s-0.56,0.09-0.77,0.09c-0.5,0-0.91-0.15-1.21-0.46
				s-0.46-0.72-0.46-1.24V203.53z"/>
			<path class="st1" d="M140,216.84c-0.66,0-1.27-0.12-1.83-0.38s-1.04-0.6-1.45-1.05c-0.41-0.45-0.73-0.96-0.95-1.54
				c-0.23-0.58-0.34-1.19-0.34-1.84c0-0.67,0.11-1.29,0.34-1.87c0.23-0.58,0.55-1.09,0.96-1.54c0.41-0.45,0.9-0.8,1.46-1.06
				s1.16-0.38,1.81-0.38c0.65,0,1.25,0.13,1.8,0.38c0.55,0.26,1.04,0.61,1.46,1.06c0.42,0.45,0.74,0.96,0.97,1.54
				c0.23,0.58,0.34,1.2,0.34,1.87c0,0.65-0.11,1.26-0.34,1.84c-0.23,0.58-0.55,1.09-0.96,1.54c-0.41,0.45-0.9,0.8-1.46,1.05
				S140.65,216.84,140,216.84z M136.33,212.04c0,0.74,0.17,1.41,0.49,2.01c0.33,0.6,0.77,1.08,1.32,1.44
				c0.55,0.36,1.16,0.54,1.83,0.54s1.29-0.18,1.84-0.55s1-0.85,1.33-1.47c0.33-0.61,0.5-1.29,0.5-2.01c0-0.73-0.17-1.4-0.5-2
				c-0.33-0.61-0.77-1.1-1.32-1.46s-1.16-0.55-1.83-0.55c-0.67,0-1.29,0.18-1.84,0.55c-0.56,0.37-1,0.86-1.33,1.47
				C136.5,210.62,136.33,211.3,136.33,212.04z"/>
			<path class="st1" d="M151.3,216.84c-0.8,0-1.52-0.21-2.15-0.64s-1.14-0.94-1.52-1.55v5.84h-0.9v-13.17h0.83v1.88
				c0.38-0.6,0.89-1.08,1.53-1.46s1.31-0.56,2.02-0.56c0.66,0,1.26,0.13,1.8,0.4c0.54,0.27,1.01,0.63,1.41,1.09
				c0.4,0.46,0.71,0.98,0.94,1.55c0.22,0.57,0.33,1.17,0.33,1.79c0,0.86-0.18,1.66-0.54,2.39c-0.36,0.73-0.86,1.32-1.5,1.76
				C152.89,216.62,152.15,216.84,151.3,216.84z M151.08,216.03c0.55,0,1.05-0.11,1.48-0.34c0.44-0.23,0.81-0.53,1.12-0.91
				s0.55-0.81,0.72-1.29c0.17-0.48,0.25-0.97,0.25-1.47c0-0.54-0.1-1.05-0.29-1.53c-0.19-0.48-0.46-0.91-0.8-1.28
				s-0.74-0.67-1.19-0.89c-0.45-0.22-0.94-0.33-1.47-0.33c-0.32,0-0.67,0.07-1.03,0.2c-0.37,0.13-0.71,0.32-1.04,0.56
				c-0.33,0.24-0.6,0.51-0.82,0.81c-0.22,0.3-0.35,0.62-0.4,0.94v3.06c0.22,0.45,0.5,0.87,0.84,1.24s0.74,0.67,1.2,0.89
				C150.11,215.92,150.59,216.03,151.08,216.03z"/>
			<path class="st1" d="M171.48,216.66h-0.9v-5.2c0-1.18-0.18-2.05-0.55-2.62c-0.37-0.56-0.93-0.84-1.68-0.84
				c-0.77,0-1.45,0.27-2.04,0.82c-0.59,0.54-1.01,1.24-1.25,2.09v5.75h-0.9v-5.2c0-1.19-0.18-2.07-0.54-2.62
				c-0.36-0.56-0.92-0.83-1.67-0.83c-0.77,0-1.45,0.27-2.04,0.8s-1.02,1.23-1.27,2.08v5.77h-0.9v-9.34h0.85v2.24
				c0.4-0.76,0.91-1.35,1.53-1.76c0.62-0.41,1.31-0.62,2.05-0.62c0.78,0,1.42,0.23,1.92,0.69c0.5,0.46,0.79,1.07,0.89,1.84
				c0.44-0.84,0.97-1.47,1.58-1.89c0.61-0.42,1.31-0.64,2.09-0.64c0.52,0,0.95,0.09,1.3,0.28c0.35,0.19,0.65,0.45,0.88,0.81
				c0.23,0.35,0.4,0.79,0.5,1.3c0.1,0.51,0.15,1.09,0.15,1.74V216.66z"/>
			<path class="st1" d="M178.17,216.84c-0.66,0-1.27-0.13-1.83-0.38c-0.56-0.26-1.05-0.61-1.47-1.06c-0.41-0.45-0.74-0.97-0.97-1.56
				c-0.23-0.59-0.35-1.22-0.35-1.87c0-0.88,0.2-1.68,0.59-2.4s0.94-1.29,1.64-1.73c0.7-0.44,1.48-0.65,2.34-0.65
				c0.89,0,1.67,0.22,2.36,0.66s1.23,1.03,1.63,1.75c0.4,0.72,0.6,1.51,0.6,2.38c0,0.07,0,0.14,0,0.21c0,0.07-0.01,0.13-0.02,0.18
				h-8.2c0.05,0.7,0.25,1.34,0.59,1.92c0.35,0.57,0.79,1.02,1.34,1.35c0.55,0.33,1.14,0.49,1.79,0.49s1.26-0.17,1.83-0.5
				s0.98-0.77,1.21-1.3l0.79,0.22c-0.18,0.44-0.46,0.84-0.85,1.19c-0.39,0.35-0.85,0.62-1.37,0.82
				C179.29,216.74,178.75,216.84,178.17,216.84z M174.45,211.66h7.39c-0.05-0.73-0.24-1.37-0.58-1.93c-0.33-0.56-0.78-1-1.32-1.32
				c-0.55-0.32-1.15-0.48-1.81-0.48c-0.66,0-1.26,0.16-1.8,0.48c-0.54,0.32-0.98,0.76-1.31,1.32
				C174.69,210.29,174.49,210.93,174.45,211.66z"/>
			<path class="st1" d="M192.33,216.66h-0.9v-5.2c0-1.19-0.17-2.07-0.51-2.62s-0.88-0.83-1.63-0.83c-0.53,0-1.05,0.12-1.56,0.38
				s-0.95,0.59-1.33,1.03s-0.65,0.93-0.82,1.48v5.77h-0.9v-9.34h0.85v2.24c0.25-0.48,0.59-0.89,1.01-1.25s0.89-0.63,1.4-0.83
				s1.05-0.3,1.6-0.3c0.52,0,0.95,0.09,1.3,0.28c0.35,0.19,0.64,0.45,0.86,0.8c0.22,0.35,0.38,0.78,0.48,1.29s0.14,1.1,0.14,1.76
				V216.66z"/>
			<path class="st1" d="M199.22,216.28c-0.06,0.02-0.18,0.08-0.36,0.18c-0.18,0.1-0.41,0.18-0.68,0.26
				c-0.28,0.08-0.58,0.12-0.92,0.12c-0.32,0-0.63-0.06-0.91-0.19c-0.28-0.13-0.51-0.32-0.67-0.57s-0.25-0.56-0.25-0.92v-7.1h-1.31
				v-0.74h1.31v-3.2h0.9v3.2h2.18v0.74h-2.18v6.88c0.02,0.35,0.15,0.61,0.38,0.79c0.23,0.17,0.49,0.26,0.79,0.26
				c0.37,0,0.7-0.06,0.97-0.19c0.28-0.13,0.44-0.21,0.49-0.24L199.22,216.28z"/>
		</g>
	</g>
</g>
<g id="Coloured">
	<path class="st2" d="M93.17,6.67c0,0,50.08,13.39,51.11,67.68c0,0,3.36,32.93-38.64,43.22c0,0-32.79,3.83-31.31-31.41
		c0,0,5.05-10.78,12.74-11.49s24.99-2.8,30.03-21.13C122.14,35.22,108.96,17.77,93.17,6.67z"/>
	<path class="st3" d="M141.49,93.04c0,0-13.39,50.08-67.68,51.11c0,0-32.93,3.36-43.22-38.64c0,0-3.83-32.79,31.41-31.31
		c0,0,10.78,5.05,11.49,12.74s2.8,24.99,21.13,30.03C112.94,122.01,130.39,108.83,141.49,93.04z"/>
	<path class="st4" d="M53.31,141.48c0,0-41.85-8.47-49.74-62.49S60.71,0.04,76.13,3.74s31.46,6.88,40.57,35.32
		S91.74,74.12,91.74,74.12S81.81,71.92,74,85.47c0,0-7.92-19.74-32.45-6.56c0,0-17.2,10.15-8.72,36.33
		C32.83,115.23,39.26,128.17,53.31,141.48z"/>
	<path class="st5" d="M73.97,3.74c24.03,0,43.5,19.48,43.5,43.5"/>
	<path class="st5" d="M117.5,47.25c0,14.85-12.04,26.89-26.89,26.89"/>
	<path class="st5" d="M144.4,74.16c0,24.03-19.48,43.5-43.5,43.5"/>
	<path class="st5" d="M100.89,117.69C86.04,117.69,74,105.65,74,90.8"/>
	<path class="st5" d="M73.98,90.8c0-9.19,7.45-16.64,16.64-16.64"/>
	<path class="st5" d="M144.38,74.13c0,24.03-19.48,43.5-43.5,43.5"/>
	<path class="st5" d="M100.88,117.66c-14.85,0-26.89-12.04-26.89-26.89"/>
	<path class="st5" d="M73.97,144.56c-24.03,0-43.5-19.48-43.5-43.5"/>
	<path class="st5" d="M30.43,101.05c0-14.85,12.04-26.89,26.89-26.89"/>
	<path class="st5" d="M57.33,74.14c9.19,0,16.64,7.45,16.64,16.64"/>
	<path class="st5" d="M73.97,144.56c-24.03,0-43.5-19.48-43.5-43.5"/>
	<path class="st5" d="M30.43,101.05c0-14.85,12.04-26.89,26.89-26.89"/>
	<path class="st5" d="M57.33,74.14c9.19,0,16.64,7.45,16.64,16.64"/>
	<path class="st5" d="M73.97,144.56c39.02,0,70.68-31.39,70.68-70.41s-31.33-70.4-70.36-70.4"/>
	<circle class="st6" cx="78.02" cy="47.25" r="12.67"/>
	<circle class="st5" cx="74" cy="74.14" r="70.43"/>
</g>
</svg>
