<svg version="1.1" id="Layer_1" xmlns="http://www.w3.org/2000/svg" x="0" y="0" viewBox="0 0 245.4 65" style="enable-background:new 0 0 245.4 65" xml:space="preserve"><style>.st0{fill:#ffe373}</style><g id="Black_and_White_v2"><path class="st0" d="M16.6 8.9h7.7c.4 0 .7.1 1 .4s.4.6.4 1-.1.7-.4.9-.6.4-1 .4h-6.4l.2-.4v4.5l-.2-.2h5.4c.4 0 .7.1 1 .4.3.3.4.6.4 1s-.1.7-.4.9-.6.4-1 .4H18l.1-.2v4.6l-.2-.2h6.4c.4 0 .7.1 1 .4s.4.6.4.9c0 .4-.1.7-.4.9s-.6.4-1 .4h-7.7c-.4 0-.7-.1-1-.4s-.4-.6-.4-1V10.2c0-.4.1-.7.4-1s.6-.3 1-.3zM38.9 8.8c.2 0 .4.1.7.2s.4.3.5.4l5.6 8.6h-1.1l5.7-8.5c.3-.4.7-.6 1.1-.6.4 0 .7.1 1 .4s.4.6.4 1v13.3c0 .4-.1.7-.4 1s-.6.4-1 .4-.8-.1-1-.4-.4-.6-.4-1V12.7l.9.2-4.8 7.1c-.1.2-.3.3-.5.4s-.4.2-.6.2c-.2 0-.4 0-.6-.2-.2-.1-.4-.3-.5-.4l-4.4-6.9.6-1.2v11.6c0 .4-.1.7-.4 1-.2.3-.6.4-1 .4s-.7-.1-.9-.4-.4-.6-.4-1V10.2c0-.4.1-.7.4-1 .3-.2.7-.4 1.1-.4zM68.2 23.5c0 .4-.2.7-.4 1-.3.3-.6.4-1 .4s-.8-.1-1-.4-.4-.6-.4-1V10.2c0-.4.1-.7.4-1 .2-.2.6-.3 1-.3s.7.1 1 .4c.3.3.4.6.4 1v13.2zM89.6 22.2c.4 0 .7.1 1 .4s.4.6.4 1-.1.7-.4 1-.6.4-1 .4h-7.4c-.4 0-.7-.1-1-.4s-.4-.6-.4-1V10.2c0-.4.1-.7.4-1s.6-.4 1.1-.4c.4 0 .7.1 1 .4.3.3.4.6.4 1v12.3l-.5-.4h6.4v.1zM111.7 8.8c.3 0 .7.1.9.4.3.3.4.6.4 1 0 .1 0 .3-.1.4 0 .1-.1.3-.2.4l-5.2 7.4.4-1.6v6.6c0 .4-.1.7-.4 1s-.6.4-.9.4c-.4 0-.7-.1-1-.4s-.4-.6-.4-1V17l.2.7-4.9-6.6c-.2-.2-.3-.4-.3-.6-.1-.2-.1-.4-.1-.5 0-.4.2-.8.5-1s.7-.4 1-.4c.4 0 .8.2 1.1.6l4.4 6.1-.6-.1 4.1-5.9c.2-.3.6-.5 1.1-.5zM147 8.9c1.5 0 2.6.3 3.3 1s1.1 1.7 1.1 3c0 .7-.2 1.4-.5 1.9s-.9 1-1.6 1.3-1.5.5-2.5.5l.1-1c.5 0 1 .1 1.6.2.6.1 1.2.4 1.8.7s1 .8 1.4 1.4.6 1.3.6 2.3-.2 1.8-.5 2.5-.8 1.1-1.3 1.5-1.1.6-1.7.7-1.2.2-1.8.2h-5.7c-.4 0-.7-.1-1-.4s-.4-.6-.4-1V10.2c0-.4.1-.7.4-1 .3-.3.6-.4 1-.4l5.7.1zm-.4 2.7h-4.1l.3-.4v4.1l-.3-.2h4.1c.4 0 .8-.1 1.2-.4s.5-.7.5-1.3c0-.7-.2-1.1-.5-1.4s-.7-.4-1.2-.4zm.2 6.2h-4.2l.2-.2v4.8l-.2-.2h4.4c.7 0 1.3-.2 1.7-.6s.6-.9.6-1.7c0-.7-.1-1.2-.4-1.5s-.6-.5-1-.6c-.5.1-.8 0-1.1 0zM178.7 16.9c0 1.1-.2 2.2-.6 3.2-.4 1-.9 1.9-1.6 2.6-.7.8-1.5 1.4-2.5 1.8-.9.4-2 .6-3.1.6s-2.2-.2-3.1-.6c-.9-.4-1.8-1-2.5-1.8s-1.2-1.6-1.6-2.6-.6-2.1-.6-3.2.2-2.2.6-3.2c.4-1 .9-1.9 1.6-2.6s1.5-1.4 2.5-1.8c.9-.4 2-.6 3.1-.6s2.2.2 3.1.6 1.8 1 2.5 1.8 1.2 1.6 1.6 2.6c.4.9.6 2 .6 3.2zm-3 0c0-1-.2-1.9-.6-2.8-.4-.8-1-1.5-1.7-2s-1.6-.7-2.5-.7-1.8.2-2.5.7-1.3 1.1-1.7 2-.6 1.8-.6 2.8.2 2 .6 2.8c.4.8 1 1.5 1.7 2s1.6.7 2.5.7 1.8-.2 2.5-.7 1.3-1.1 1.7-2c.4-.9.6-1.8.6-2.8zM200.1 8.8c.4 0 .7.1.9.4.3.3.4.6.4 1 0 .1 0 .3-.1.4 0 .1-.1.3-.2.4l-5.2 7.4.4-1.6v6.6c0 .4-.1.7-.4 1-.3.3-.6.4-.9.4-.4 0-.7-.1-1-.4s-.4-.6-.4-1V17l.2.7-4.9-6.6c-.1-.2-.3-.4-.3-.6-.1-.2-.1-.4-.1-.5 0-.4.2-.8.5-1 .3-.3.6-.4 1-.4s.8.2 1.1.6l4.4 6.1-.6-.1 4.1-5.9c.3-.3.7-.5 1.1-.5zM219.6 8.9c1.1 0 2.1.2 2.9.6s1.6 1 2.2 1.7c.6.7 1 1.6 1.3 2.6s.4 2 .4 3.1c0 1.5-.3 2.8-.8 4s-1.3 2.2-2.3 2.9c-1 .7-2.3 1.1-3.7 1.1h-5.5c-.4 0-.7-.1-1-.4s-.4-.6-.4-1V10.2c0-.4.1-.7.4-1 .3-.3.6-.4 1-.4l5.5.1zm-.2 13.3c1 0 1.8-.2 2.4-.7.6-.5 1.1-1.1 1.3-2s.4-1.7.4-2.7c0-.7-.1-1.4-.2-2.1s-.4-1.2-.7-1.7-.8-.9-1.3-1.2-1.1-.4-1.9-.4h-4l.2-.2v11.2l-.1-.2h3.9zM11.3 37.4h1.5l1.7 4.4 1.7-4.4h1.5L15.5 43l2.2 5.3L22 37.4h1.8l-5.3 12.8h-1.4l-2.5-6-2.6 6h-1.4L5.3 37.3H7l4.3 10.9 2.2-5.3-2.2-5.5zM28.2 50.3c-.7 0-1.4-.1-1.9-.4s-1.1-.6-1.5-1c-.4-.5-.8-1-1-1.5s-.4-1.2-.4-1.9c0-.9.2-1.7.6-2.4s1-1.3 1.7-1.8 1.6-.7 2.5-.7c1 0 1.8.2 2.5.7s1.2 1 1.6 1.8c.4.7.6 1.5.6 2.3v.6h-7.8c0 .6.2 1.1.5 1.6s.7.8 1.1 1.1c.5.3 1 .4 1.5.4.6 0 1.1-.1 1.6-.4.5-.3.9-.7 1-1.1l1.4.4c-.2.5-.5.9-.9 1.2s-.9.6-1.4.8-1.1.3-1.7.3zM25 44.9h6.4c0-.6-.2-1.1-.5-1.6s-.7-.8-1.1-1.1c-.5-.3-1-.4-1.5-.4s-1.1.1-1.5.4-.9.6-1.1 1.1c-.5.4-.6 1-.7 1.6zM39.5 50.3c-.7 0-1.4-.2-2-.5s-1.1-.8-1.4-1.4v1.8h-1.4V37h1.6v5.7c.4-.6.9-1.1 1.5-1.5s1.2-.6 2-.6c.7 0 1.2.1 1.7.4.5.3 1 .6 1.3 1.1.4.5.7 1 .8 1.5s.3 1.2.3 1.8c0 .7-.1 1.3-.3 1.8-.2.6-.5 1.1-.9 1.5s-.9.8-1.4 1c-.6.4-1.2.6-1.8.6zm-.4-1.4c.5 0 .9-.1 1.3-.3.4-.2.7-.5 1-.8s.5-.7.7-1.1c.2-.4.2-.8.2-1.3 0-.6-.1-1.2-.4-1.7s-.6-1-1.1-1.3-1-.5-1.6-.5c-.4 0-.9.1-1.2.3s-.7.5-1 .8-.5.7-.7 1.1v2.7c.1.3.2.6.4.8s.4.5.7.7.6.3.9.4c.2.1.5.2.8.2zM50.7 50.1V37.3h4.4c1.4 0 2.5.3 3.4.8s1.6 1.3 2.1 2.3.7 2 .7 3.2c0 1.3-.2 2.4-.8 3.4-.5 1-1.2 1.7-2.1 2.2s-2 .8-3.3.8l-4.4.1zm8.9-6.4c0-1-.2-1.8-.5-2.5s-.9-1.3-1.5-1.8c-.7-.4-1.5-.6-2.5-.6h-2.8v9.9h2.8c1 0 1.8-.2 2.5-.7s1.2-1 1.5-1.8c.4-.7.5-1.6.5-2.5zM67.4 50.3c-.7 0-1.3-.1-1.9-.4s-1.1-.6-1.5-1c-.4-.5-.8-1-1-1.5s-.3-1.2-.3-1.9c0-.9.2-1.7.6-2.4s1-1.3 1.7-1.8 1.6-.7 2.5-.7 1.8.2 2.5.7 1.2 1 1.6 1.8.6 1.5.6 2.3v.6h-7.8c.1.6.2 1.1.5 1.6s.7.8 1.1 1.1c.5.3 1 .4 1.5.4.6 0 1.1-.1 1.6-.4.5-.3.9-.7 1.1-1.1l1.4.4c-.2.5-.5.9-.9 1.2s-.9.6-1.4.8-1.2.3-1.9.3zm-3.1-5.4h6.4c-.1-.6-.2-1.1-.5-1.6s-.7-.8-1.2-1.1-1-.4-1.6-.4-1.1.1-1.5.4-.8.6-1.1 1.1c-.3.4-.5 1-.5 1.6zM77.2 50.3c-.8 0-1.5-.1-2.2-.4s-1.3-.6-1.8-1.2l.6-1.1c.5.5 1.1.9 1.6 1.1s1.1.3 1.6.3c.7 0 1.2-.1 1.6-.4s.6-.6.6-1.1c0-.3-.1-.6-.3-.8-.2-.2-.5-.3-.9-.4-.4-.1-.8-.2-1.4-.4-.7-.2-1.2-.4-1.6-.6-.4-.2-.8-.5-1-.8s-.3-.7-.3-1.2c0-.6.2-1.1.5-1.5s.7-.7 1.3-.9c.6-.2 1.2-.3 1.9-.3s1.3.1 1.9.3 1.1.5 1.5 1L80 43c-.4-.4-.8-.7-1.2-.8-.4-.2-.9-.3-1.5-.3-.3 0-.6 0-.9.1s-.6.2-.8.4-.3.5-.3.8.1.5.2.7c.2.2.4.3.7.4s.7.2 1.2.4c.7.2 1.3.4 1.8.6s.9.5 1.2.8.4.8.4 1.3c0 .9-.3 1.6-1 2.1s-1.6.8-2.6.8zM82.7 38.9v-2h1.6v2h-1.6zm0 11.2v-9.4h1.6v9.4h-1.6zM90.6 50.3c-.6 0-1.2-.1-1.8-.4s-1-.6-1.4-1.1-.7-1-.9-1.5-.3-1.2-.3-1.8c0-.7.1-1.3.3-1.9s.5-1.1.9-1.6.8-.8 1.4-1.1c.5-.3 1.1-.4 1.8-.4.8 0 1.5.2 2 .6s1.1.9 1.5 1.5v-1.9h1.4V50c0 .9-.2 1.6-.6 2.2s-1 1.1-1.7 1.4-1.5.5-2.4.5c-1.1 0-1.9-.2-2.6-.6-.7-.4-1.2-.9-1.7-1.5l.9-.8c.4.5.8 1 1.4 1.2.6.3 1.2.4 1.9.4.6 0 1.1-.1 1.6-.3s.9-.5 1.2-.9.4-1 .4-1.6v-1.7c-.3.6-.8 1-1.4 1.4-.6.4-1.3.6-1.9.6zm.5-1.3c.3 0 .7-.1 1-.2s.6-.3.9-.5.5-.4.7-.7.3-.5.4-.8v-2.7c-.2-.4-.4-.8-.7-1.1-.3-.3-.7-.6-1.1-.8s-.8-.3-1.2-.3c-.5 0-.9.1-1.3.3s-.7.5-1 .8-.5.7-.6 1.1-.2.8-.2 1.3.1.9.2 1.3.4.8.7 1.1c.3.3.6.6 1 .8.3.3.7.4 1.2.4zM106.2 50.1h-1.6v-5.2c0-1-.2-1.7-.5-2.2s-.8-.7-1.4-.7c-.4 0-.9.1-1.3.3s-.8.5-1.1.9c-.3.4-.6.8-.7 1.2V50H98v-9.3h1.4v2c.2-.4.6-.8 1-1.1s.8-.6 1.3-.8 1-.3 1.6-.3c.5 0 1 .1 1.4.3s.7.5.9.8.4.8.4 1.2c.1.5.1 1 .1 1.5l.1 5.8zM122 50.1l-6.3-6.6c-.5-.5-.9-1-1.2-1.4-.3-.4-.5-.7-.7-1-.1-.3-.2-.6-.2-1 0-.5.1-1 .4-1.5s.7-.8 1.2-1 1.1-.4 1.7-.4 1.1.1 1.6.3.8.5 1.1.9c.3.4.4.8.4 1.4s-.2 1-.4 1.5c-.3.4-.7.8-1.2 1.2s-1 .7-1.6 1.1c-.5.3-.9.6-1.3.9s-.7.7-.9 1-.3.8-.3 1.2c0 .5.1.9.4 1.2s.6.6 1 .8.9.3 1.3.3c.6 0 1.2-.1 1.7-.4s1-.7 1.4-1.2.7-1.1.9-1.8c.2-.7.3-1.4.3-2.2h1.3c0 1-.2 1.9-.5 2.7s-.7 1.5-1.3 2.1c-.5.6-1.2 1.1-1.9 1.4-.7.3-1.5.5-2.3.5s-1.5-.2-2.1-.5-1.1-.7-1.5-1.2-.5-1.1-.5-1.8.2-1.2.5-1.7.7-.9 1.2-1.3 1-.7 1.5-1.1c.5-.3 1-.6 1.4-.9s.7-.6 1-.9.3-.6.3-1-.2-.8-.5-1-.7-.4-1.2-.4c-.4 0-.7.1-.9.2-.3.2-.5.3-.7.6s-.2.5-.2.8c0 .2.1.4.1.6.1.2.3.5.6.8.3.3.7.7 1.1 1.2l7.1 7.5-1.8.1zM130.3 50.1V37.3h4.4c1.4 0 2.5.3 3.4.8.9.6 1.6 1.3 2.1 2.3s.7 2 .7 3.2c0 1.3-.2 2.4-.8 3.4-.5 1-1.2 1.7-2.1 2.2s-2 .8-3.3.8l-4.4.1zm8.9-6.4c0-1-.2-1.8-.5-2.5s-.9-1.3-1.5-1.8-1.5-.6-2.5-.6h-2.8v9.9h2.8c1 0 1.8-.2 2.5-.7s1.2-1 1.5-1.8.5-1.6.5-2.5zM147.1 50.3c-.7 0-1.4-.1-1.9-.4-.6-.3-1.1-.6-1.5-1-.4-.5-.8-1-1-1.5-.2-.6-.4-1.2-.4-1.9 0-.9.2-1.7.6-2.4s1-1.3 1.7-1.8 1.6-.7 2.5-.7 1.8.2 2.5.7 1.2 1 1.6 1.8.6 1.5.6 2.3v.6H144c.1.6.2 1.1.5 1.6s.7.8 1.1 1.1 1 .4 1.5.4c.6 0 1.1-.1 1.6-.4.5-.3.9-.7 1.1-1.1l1.4.4c-.2.5-.5.9-.9 1.2-.4.4-.9.6-1.4.8s-1.2.3-1.8.3zm-3.2-5.4h6.4c-.1-.6-.2-1.1-.5-1.6s-.7-.8-1.1-1.1c-.5-.3-1-.4-1.6-.4s-1.1.1-1.5.4-.9.6-1.1 1.1c-.4.4-.6 1-.6 1.6zM156 50.1l-3.7-9.3h1.7l2.9 7.8 2.9-7.8h1.6l-3.7 9.3H156zM166.8 50.3c-.7 0-1.4-.1-1.9-.4-.6-.3-1.1-.6-1.5-1s-.8-1-1-1.5c-.2-.6-.4-1.2-.4-1.9 0-.9.2-1.7.6-2.4s1-1.3 1.7-1.8 1.6-.7 2.5-.7 1.8.2 2.5.7 1.2 1 1.6 1.8.6 1.5.6 2.3v.6h-7.8c.1.6.2 1.1.5 1.6s.7.8 1.1 1.1c.5.3 1 .4 1.5.4.6 0 1.1-.1 1.6-.4.5-.3.9-.7 1.1-1.1l1.4.4c-.2.5-.5.9-.9 1.2-.4.4-.9.6-1.4.8s-1.2.3-1.8.3zm-3.2-5.4h6.4c-.1-.6-.2-1.1-.5-1.6s-.7-.8-1.1-1.1-1-.4-1.6-.4-1.1.1-1.5.4-.9.6-1.1 1.1c-.3.4-.5 1-.6 1.6zM173.3 37h1.6v10.8c0 .5.1.8.2 1 .1.1.3.2.5.2s.5 0 .7-.1.4-.1.6-.2l.2 1.3-.9.3c-.3.1-.7.1-.9.1-.6 0-1.1-.2-1.4-.5-.4-.3-.5-.8-.5-1.5l-.1-11.4zM182.5 50.3c-.7 0-1.4-.1-1.9-.4-.6-.3-1.1-.6-1.5-1-.4-.5-.7-1-1-1.5s-.3-1.2-.3-1.8c0-.7.1-1.3.3-1.9.2-.6.6-1.1 1-1.5.4-.5.9-.8 1.5-1 .6-.3 1.2-.4 1.9-.4s1.4.1 1.9.4c.6.3 1.1.6 1.5 1s.8 1 1 1.5.3 1.2.3 1.9c0 .6-.1 1.3-.3 1.8s-.6 1.1-1 1.5-.9.8-1.5 1c-.5.2-1.2.4-1.9.4zm-3.1-4.8c0 .6.1 1.2.4 1.8.3.5.7.9 1.1 1.2.5.3 1 .5 1.6.5s1.1-.2 1.6-.5.9-.7 1.1-1.2c.3-.5.4-1.1.4-1.8s-.1-1.2-.4-1.7-.7-.9-1.1-1.2-1-.5-1.6-.5-1.1.2-1.6.5-.8.7-1.1 1.2c-.2.4-.4 1-.4 1.7zM194.3 50.3c-.8 0-1.4-.2-2.1-.6s-1.1-.9-1.4-1.5v5.7h-1.6V40.7h1.4v1.8c.4-.6.9-1 1.5-1.4.6-.3 1.2-.5 2-.5.6 0 1.2.1 1.8.4s1 .6 1.4 1.1.7 1 .9 1.5c.2.6.3 1.2.3 1.8 0 .9-.2 1.7-.5 2.4s-.9 1.3-1.5 1.8-1.4.7-2.2.7zm-.5-1.4c.5 0 .9-.1 1.3-.3.4-.2.7-.5 1-.8s.5-.7.6-1.1c.1-.4.2-.8.2-1.3s-.1-.9-.2-1.3-.4-.8-.7-1.1-.6-.6-1-.8-.8-.3-1.3-.3c-.3 0-.6 0-.9.2s-.6.3-.9.5c-.3.2-.5.4-.7.7s-.3.5-.4.8v2.7c.2.4.4.8.7 1.1s.6.6 1 .8.9.2 1.3.2zM214.6 50.1H213v-5.2c0-1-.2-1.7-.5-2.2s-.8-.7-1.4-.7c-.6 0-1.2.2-1.7.7s-.9 1-1.1 1.8v5.6h-1.6v-5.2c0-1-.2-1.7-.5-2.2s-.8-.7-1.4-.7-1.2.2-1.7.7-.9 1-1.1 1.8v5.6h-1.6v-9.3h1.4v2c.4-.7.9-1.2 1.5-1.6s1.3-.6 2.1-.6 1.4.2 1.9.6.8 1 .9 1.6c.4-.7.9-1.3 1.5-1.7s1.3-.6 2.1-.6c.5 0 1 .1 1.4.3s.7.5.9.8.4.8.5 1.2c.1.5.1 1 .1 1.5l-.1 5.8zM221.2 50.3c-.7 0-1.4-.1-1.9-.4-.6-.3-1.1-.6-1.5-1-.4-.5-.8-1-1-1.5-.2-.6-.4-1.2-.4-1.9 0-.9.2-1.7.6-2.4s1-1.3 1.7-1.8 1.6-.7 2.5-.7 1.8.2 2.5.7 1.2 1 1.6 1.8.6 1.5.6 2.3v.6h-7.8c.1.6.2 1.1.5 1.6s.7.8 1.1 1.1 1 .4 1.5.4c.6 0 1.1-.1 1.6-.4.5-.3.9-.7 1.1-1.1l1.4.4c-.2.5-.5.9-.9 1.2-.4.4-.9.6-1.4.8s-1.2.3-1.8.3zm-3.2-5.4h6.4c-.1-.6-.2-1.1-.5-1.6s-.7-.8-1.1-1.1c-.5-.3-1-.4-1.6-.4s-1.1.1-1.5.4-.9.6-1.1 1.1c-.4.4-.5 1-.6 1.6zM235.8 50.1h-1.6v-5.2c0-1-.1-1.7-.5-2.2-.3-.5-.8-.7-1.4-.7-.4 0-.9.1-1.3.3s-.8.5-1.1.9-.6.8-.7 1.2V50h-1.6v-9.3h1.4v2c.2-.4.6-.8 1-1.1s.9-.6 1.4-.8 1-.3 1.6-.3c.5 0 1 .1 1.4.3s.6.5.9.8.4.8.4 1.2.1 1 .1 1.5v5.8zM243.1 49.7c-.1.1-.3.1-.5.2s-.5.2-.8.2c-.3.1-.6.1-.9.1-.4 0-.7-.1-1.1-.2-.3-.1-.6-.3-.8-.7-.2-.3-.3-.7-.3-1.1V42h-1.3v-1.2h1.3v-3.1h1.6v3.1h2.1V42h-2.1v5.8c0 .3.1.6.3.8s.4.2.7.2.6 0 .9-.2.4-.2.5-.2l.4 1.3z"/></g></svg>