<svg width="83" height="85" viewBox="0 0 83 85" fill="none" xmlns="http://www.w3.org/2000/svg">
<g filter="url(#filter0_d_17_203)">
<circle cx="41.5" cy="37.5" r="37.5" fill="#FCB033"/>
<path d="M31.123 33.3329C30.5856 32.7955 30.3035 32.164 30.2766 31.4386C30.3035 30.7131 30.5991 30.0682 31.1633 29.5039C31.7007 28.9665 32.3053 28.7112 32.9771 28.7381C33.7026 28.765 34.334 29.0471 34.8714 29.5845L51.3562 46.0693C51.8936 46.6067 52.1623 47.2247 52.1623 47.9233C52.1892 48.6488 51.9205 49.2937 51.3562 49.858C50.8456 50.3685 50.2142 50.6238 49.4618 50.6238C48.7632 50.6238 48.1452 50.3551 47.6078 49.8177L31.123 33.3329ZM31.1633 49.6565C30.5453 49.0384 30.2229 48.3129 30.196 47.48C30.196 46.6739 30.5185 45.9484 31.1633 45.3035L47.3257 29.1412C47.9437 28.5232 48.6692 28.2276 49.5021 28.2545C50.3351 28.2813 51.0606 28.6038 51.6786 29.2218C52.3235 29.8667 52.6325 30.5787 52.6056 31.3579C52.6056 32.164 52.2966 32.8761 51.6786 33.4941L35.5163 49.6565C34.8714 50.3013 34.1459 50.6238 33.3398 50.6238C32.5337 50.6238 31.8082 50.3013 31.1633 49.6565Z" fill="#272838"/>
</g>
<defs>
<filter id="filter0_d_17_203" x="0" y="0" width="83" height="85" filterUnits="userSpaceOnUse" color-interpolation-filters="sRGB">
<feFlood flood-opacity="0" result="BackgroundImageFix"/>
<feColorMatrix in="SourceAlpha" type="matrix" values="0 0 0 0 0 0 0 0 0 0 0 0 0 0 0 0 0 0 127 0" result="hardAlpha"/>
<feOffset dy="4"/>
<feGaussianBlur stdDeviation="2"/>
<feComposite in2="hardAlpha" operator="out"/>
<feColorMatrix type="matrix" values="0 0 0 0 0 0 0 0 0 0 0 0 0 0 0 0 0 0 0.25 0"/>
<feBlend mode="normal" in2="BackgroundImageFix" result="effect1_dropShadow_17_203"/>
<feBlend mode="normal" in="SourceGraphic" in2="effect1_dropShadow_17_203" result="shape"/>
</filter>
</defs>
</svg>
