<?xml version="1.0" encoding="utf-8"?>
<!-- Generator: Adobe Illustrator 27.3.1, SVG Export Plug-In . SVG Version: 6.00 Build 0)  -->
<svg version="1.1" id="Layer_1" xmlns="http://www.w3.org/2000/svg" xmlns:xlink="http://www.w3.org/1999/xlink" x="0px" y="0px"
	 viewBox="0 0 96 96" style="enable-background:new 0 0 96 96;" xml:space="preserve">
<style type="text/css">
	.st0{fill:#FFEA94;}
	.st1{fill:#272838;}
</style>
<path class="st0" d="M48,0c26.5,0,48,21.5,48,48S0,74.5,0,48S21.5,0,48,0z"/>
<path class="st1" d="M38.5,38.5c-0.3-0.4-0.5-0.8-0.5-1.4c0-0.6,0.2-1,0.5-1.4l8.7-9.1c0.2-0.2,0.4-0.3,0.6-0.4
	C48,26,48.2,26,48.5,26s0.5,0,0.7,0.1c0.2,0.1,0.4,0.2,0.6,0.4l8.7,9.1c0.3,0.4,0.5,0.8,0.5,1.4c0,0.6-0.2,1-0.5,1.4
	c-0.3,0.4-0.8,0.5-1.3,0.5c-0.5,0-1-0.2-1.3-0.5l-7.3-7.7l-7.3,7.7c-0.3,0.4-0.8,0.5-1.3,0.5C39.3,39,38.9,38.8,38.5,38.5z"/>
</svg>
