<svg width="91" height="91" viewBox="0 0 91 91" fill="none" xmlns="http://www.w3.org/2000/svg">
<path d="M45.499 48.5C41.9019 48.5 38.3855 47.4333 35.3946 45.4349C32.4037 43.4364 30.0725 40.5959 28.696 37.2726C27.3194 33.9492 26.9592 30.2923 27.661 26.7643C28.3628 23.2363 30.095 19.9956 32.6385 17.452C35.1821 14.9084 38.4228 13.1762 41.9508 12.4745C45.4789 11.7727 49.1358 12.1329 52.4591 13.5094C55.7824 14.886 58.6229 17.2172 60.6214 20.2081C62.6199 23.199 63.6865 26.7154 63.6865 30.3125C63.6865 35.1361 61.7704 39.7622 58.3595 43.173C54.9487 46.5838 50.3227 48.5 45.499 48.5ZM45.499 18.1875C43.1009 18.1875 40.7567 18.8986 38.7627 20.2309C36.7688 21.5633 35.2147 23.4569 34.297 25.6725C33.3793 27.888 33.1392 30.326 33.607 32.678C34.0749 35.03 35.2296 37.1905 36.9254 38.8862C38.6211 40.5819 40.7815 41.7367 43.1336 42.2045C45.4856 42.6724 47.9235 42.4323 50.1391 41.5145C52.3546 40.5968 54.2483 39.0427 55.5806 37.0488C56.9129 35.0548 57.624 32.7106 57.624 30.3125C57.624 27.0968 56.3466 24.0127 54.0727 21.7388C51.7988 19.465 48.7148 18.1875 45.499 18.1875Z" fill="#272838"/>
<path d="M45.4995 90.9376C38.7775 90.9331 32.1401 89.4382 26.0652 86.5607C19.9903 83.6831 14.629 79.4943 10.3673 74.296L8.79102 72.356L10.3673 70.4463C14.6326 65.2548 19.9955 61.073 26.0702 58.2019C32.1449 55.3308 38.7804 53.8417 45.4995 53.8417C52.2185 53.8417 58.854 55.3308 64.9287 58.2019C71.0034 61.073 76.3663 65.2548 80.6316 70.4463L82.2079 72.356L80.6316 74.296C76.3699 79.4943 71.0086 83.6831 64.9337 86.5607C58.8588 89.4382 52.2214 90.9331 45.4995 90.9376ZM16.7329 72.3863C20.4196 76.3331 24.8783 79.4798 29.832 81.6313C34.7858 83.7827 40.129 84.8929 45.5298 84.8929C50.9306 84.8929 56.2737 83.7827 61.2275 81.6313C66.1813 79.4798 70.6399 76.3331 74.3266 72.3863C70.6399 68.4396 66.1813 65.2928 61.2275 63.1414C56.2737 60.9899 50.9306 59.8797 45.5298 59.8797C40.129 59.8797 34.7858 60.9899 29.832 63.1414C24.8783 65.2928 20.4196 68.4396 16.7329 72.3863Z" fill="#272838"/>
<path d="M45.4991 90.9375C35.1709 90.9444 25.148 87.4348 17.0802 80.9863C9.01237 74.5378 3.38035 65.5348 1.1111 55.4589C-1.15815 45.383 0.0705878 34.8348 4.59509 25.5503C9.11959 16.2658 16.6702 8.79834 26.0042 4.37696C35.3383 -0.0444208 45.8995 -1.15625 55.9496 1.22447C65.9997 3.60518 74.9398 9.33658 81.2986 17.4753C87.6573 25.6141 91.0557 35.6752 90.9344 46.0027C90.8131 56.3303 87.1794 66.3088 80.6313 74.296C76.3696 79.4943 71.0083 83.683 64.9333 86.5606C58.8584 89.4382 52.2211 90.9331 45.4991 90.9375ZM45.4991 6.06253C37.7053 6.06253 30.0865 8.37367 23.6062 12.7037C17.1258 17.0337 12.075 23.1881 9.09248 30.3887C6.10991 37.5892 5.32954 45.5125 6.85004 53.1566C8.37054 60.8006 12.1236 67.8222 17.6347 73.3332C23.1457 78.8443 30.1673 82.5974 37.8113 84.1179C45.4554 85.6384 53.3787 84.858 60.5792 81.8754C67.7798 78.8928 73.9342 73.842 78.2642 67.3617C82.5942 60.8814 84.9054 53.2626 84.9054 45.4688C84.9054 35.0176 80.7536 24.9945 73.3635 17.6044C65.9734 10.2143 55.9503 6.06253 45.4991 6.06253Z" fill="#272838"/>
<path d="M12.7012 72.3863C12.7012 72.3863 43.2259 106.488 74.2962 75.7813L78.2974 72.3863C78.2974 72.3863 52.3499 45.4688 26.0084 61.6254L12.7012 72.3863Z" fill="#272838"/>
<path d="M45.499 45.4688C53.8696 45.4688 60.6553 38.6831 60.6553 30.3125C60.6553 21.9419 53.8696 15.1562 45.499 15.1562C37.1285 15.1562 30.3428 21.9419 30.3428 30.3125C30.3428 38.6831 37.1285 45.4688 45.499 45.4688Z" fill="#272838"/>
</svg>
